<?xml version="1.0" encoding="UTF-8"?>
<svg version="1.1" viewBox="0 0 1344 1240" width="1280" height="1280" xmlns="http://www.w3.org/2000/svg">
<path transform="translate(996,170)" d="m0 0h21l12 3 16 8 6 4 10 9 8 9 8 15 9 27 14 49 17 58 10 33 14 48 20 70 19 65 18 60 10 33 19 62 10 35 6 23 2 18v13l-2 13-7 14-8 10-9 8-19 13-44 26-16 9-24 13-41 21-23 13-28 16-85 51-28 17-26 16-56 34-26 16-23 14-15 9-18 11-16 8-13 4-15 3-20 1-12-2-14-7-5-3-24-9-21-6-44-16-39-15-75-29-35-13-24-11-20-11-9-7-7-9-8-16-11-27-15-38-19-49-11-28-15-40-16-41-17-46-18-47-16-43-10-26-13-35-16-41-11-30-6-19-3-14-1-14 2-12 5-13 7-11 4-5h2l2-4 11-8 16-8 29-13 29-12 45-19 41-17 26-11 48-20 78-32 43-18 41-17 28-12 36-15 15-5 14-3 108-11 53-6 92-10 46-6z" fill="#E7E7E9"/>
<path transform="translate(818,384)" d="m0 0h31l80 3h30l21 4 3 2 1 3 7 4 4 5 8 7 4 4 5 10 4 4 11 21 4 12 3 5 4 12 3 13 3 6 2 11 2 5 1 11 3 8 5 37 2 26v59l-2 34-6 40-3 16-5 15-2 12-3 8-7 20-3 7h-2l-3 11-4 7-2 1-1 4h-2l-2 5-11 14-7 8-13 9h-2v2l-16 5-32 2-75 2-8 1-27 1-94 1-66 2-1 1-36 2-1 1-46 1-10 3-4-1h-47l-35 1h-29l-1-3-4-1-4-2-7-8-4-4-9-17-1-5h-2l-5-12-7-21-2-9-5-18-5-27-2-26-3-36-1-5-1-23v-53l1-10 4-7 4-1 6 6 2 9 2 18h3l2-7 2-10v-19l-3-21 2-12v-8l1-9v-11l1-25 2-9 6-9 4-1 3 3 5 12 5 10 6 11v2l4-1 3-2 1-3 2-2v-14l-1-6-1-17v-29l4-2 6 3 2 4h4v2h2l7 10 3 3 3 6 2 1 2 7h2l6 12 2 3 2 8 7 1 5-3 3-1 4 11 1 8 1 1 1 7 3 50 2 31v45l-1 26-2 26-1 5-1 21-3 23v10l-3 14 1 4 8 2v2l5 1 5 4v2l6 1 7 5 3 5v2h2l2 5 2 9 8 20-2-11-5-19 1-5 10-6h2v-2l6-2h14l12 3 9 2h26l21-2 18-4 22-5 9-2 8-5 9-3 13-7 4-4 8-4 6-7v-8l2-6 10-7h2l1-3h2v-2l3-3h2v-2l5-3h2l1-7 5-4 6-10 3-9 3-4 2-20 4-11 3-19 1-2-5-1 2-2 31-1 1-1-1-3 19-2 22-2 18-3 1-4-12 2-36 3h-12v-17l2-2 9-1v-2l26-5 16-5h2v-4l-17 4-32 6-7 1-1-9v-23l2-3 15-6 21-11 16-10 3-1 1-5-5 2-15 9-8 4-16 7-5 3-11 3-1-5v-13l9-6 10-9h2l2-4 5-5 11-14 8-14v-2h-3l-6 11-9 12-10 10-5 2-2 4-11 9h-3l-4-25-3-14-6-26v-3l26-11 11-3h5l1-5-15 4-19 6-9 4h-2l-5-16-6-15-8-18-6-11 1-2h15l26 4h7v-3l-10-2-27-3-16-1 3 10 6 10 6 14 6 16 6 19 5 19 3 16 4 18 3 19 1 1 1 39 1 11v16l-1 9-2 4-1 4h-3l-2-3 1 10h-25l2-1-2-13 6-3 12-2h5l-1-4-35 1h-8v-7l-4-7 1-4 9-4 34-12 1-4-14 4-5 2-11 2-12 4h-9l-1-3 2-5 10-5 11-3h3v-2l13-6 10-5 1-3-10 3-15 5h-6l2-6h2l1-4 2-5-1-7-6-25-2-5-3-11-7 3-6 4h-2v-2l16-10 14-9 7-4 1-4-9 4-17 9-2-2-6-12-5-7-7 1h-3l12-9 19-12h2v-5l-5 2-14 8-10 7-13 9-3-1v-2h2l1-3-5-1-7-20-8-19-1-5 26-8 18-5 1-3-18 3-18 5-8 3-5-1-3-4-2-4-1-7 4-8 5-3 9-2 35-1h17l23-3 4-1z" fill="#3770B2"/>
<path transform="translate(453,373)" d="m0 0 54 1 20 2 22-1 5 2v2h-2v2l-10 6h-3v2l-16 6-2 2-13 5-5 3h-2l-1 3-4 4 3 8 6-2 5 1 10-1 15-5 8-4 5-1 1 3h2l-1-4h4l2-7 2-1h8l4-4 6-3 9-6 15-6 8-2 26-1h29l36 1 11 1 131 2 6 1 111 2 13 3 6 3-4 1-14-3h-34l-50-2-34-1h-23l-2 2-20 2-13 1h-16l-29 1-9 2-5 2-2 7-1 2 2 7 3 6 5 1 18-6 18-4h8l-1 4-18 5-23 7h-3l8 19 7 19 1 6h6l-2 4h-2l1 2 5-2 11-8 16-10 10-6 3 1-1 5-24 15-8 6 4-2h5l7 10 6 11 17-9 6-3h3l-1 5-12 7-17 11-6 4h-2v2l11-7h4l3 6 2 9 2 6 6 23-1 6-3 7h-2l-1 5 7-1 13-4 5-2h5l-1 4-20 10h-3v2l-14 4-10 5-1 6h9l15-5 11-2 11-4h5l-1 5-40 14-3 2 1 5 3 5-1 7 10-1 33-1 1 5-17 3-5 3 1 5v7h21l2 1-2-7 1-4 4 4 2-6 1-4 1-12v-12l-1-10-1-39-2-7-4-24-3-11-5-25-11-33-6-15-8-16-3-7v-4h16l27 3 10 2 1 4-1 1-15-1-18-3h-15l2 5 6 11 5 13 3 5 8 24v3l16-7 14-4 11-3h4l-1 5-16 4-26 11 4 15 5 21 4 23v8l5-3 9-7 5-5 8-7 8-9 7-11 4-7 4 1-2 6-9 14-11 14-10 9-12 10-3 1v18l15-6 8-4 15-7 16-9 2-2h4l-1 5-16 10-16 9-12 6-11 4-1 2v23l1 8 6-1 41-8 8-1v4l-18 6-21 4h-5v2l-9 2-1 1v14l-1 3 60-5-1 5-26 4-26 2-6 1 5 2v1l-6 1-31 1 4 2-1 4-3 18-4 10-2 20-4 7-2 6-7 11-4 3-2 7-5 3h-2v2h-2l-1 3h-2v2l-10 8-5 3-1 10-1 5-5 5-4 3-6 3h-2l-1 3-15 8-11 4-7 4-20 4-15 4-11 2-23 2h-24l-9-2-12-3h-14l-6 1v2l-9 5-3 2 1 8 6 23-1 4-4-9-6-15-2-11h-2l-5-8-7-4-4-1-5-5-5-2v-2l-10-1 1-9 2-12 1-18 2-13 1-21 1-5 2-26 1-26v-45l-3-47-2-34-1-7-1-1-2-11-2-5v-3l-5 4-8 1-4-4-2-8-5-8-1-5h-2l-2-4v-3l-3-1-2-3v-3l-3-1-6-9-1-3h-2v-2h-4l-5-5-4-1-3 1 2 46 1 6v14l-3 3v3l-4 1-1 2-3-1-6-10-5-12-3-5-3-10-6 1-5 8-2 10-1 36-1 16-2 13 3 20v19l-2 10-3 7h-3l-2-9-2-14-2-5-5-4-3 1-3 6-1 10v53l1 23 2 17 2 24 1 9v10h-1l-4-30-1-9-1-1-1-7-1-33-1-14v-48l2-46 1-19 6-48 5-26 2-6 5-1 11 3 11-1 6-3 3-1 1-4h2v-8l-3-6-6-5-6-2-13 1-2-1v-9l5-15 6-13 4-8 7-10 5-6 8-6z" fill="#BCD1B3"/>
<path transform="translate(818,384)" d="m0 0h31l80 3h30l21 4 3 2 1 3 7 4 4 5 8 7 4 4 5 10 4 4 11 21 4 12 3 5 4 12 3 13 3 6 2 11 2 5 1 11 2 12 4 32 2 28v48l-1 1-18-1-36-1-13-1-1-2v-48l1-3 3-3v-14l-5-4 6-7 5-5 8-11 2-5v-17l-5-12-5-3 6 14 1 5v11l-3 6-7 10-8 7h-3l-5-33-6-27-6-20-2-9-6-17-3-10h-2l-1-2 1 5 6 16 12 43 5 23 2 9 4 30-1 12 2 25 1 19v18l-1 1h-24l-10-1-32-1-3-6v-4l28-7 14-7 2-2v-7l-2-1-2 6-5 4-10 4-13 3h-12l-1-7v-20l32-11 19-8 3-5-19 8-8 1 4-8v-14l-4-22h-2l-3-12-2-7-2-4-3-1 1-8 4-15v-19h-4l1 7v11l-3 12-7 14-9 10-1 2h-3l-11-44-5-15 1 7 4 11 4 16 2 10 2 16 1 1 1 8v18h2l1 20v17l-2 2 1 7 1 6v8l-2 6-1 6 2 1v3l3 7v5l-16-1-9-1-3-2-8-1 3-2 12-2h5v-2l6-1 1-4-12 2-36 3h-12v-17l2-2 9-1v-2l26-5 16-5h2v-4l-17 4-32 6-7 1-1-9v-23l2-3 15-6 21-11 16-10 3-1 1-5-5 2-15 9-8 4-16 7-5 3-11 3-1-5v-13l9-6 10-9h2l2-4 5-5 11-14 8-14v-2h-3l-6 11-9 12-10 10-5 2-2 4-11 9h-3l-4-25-3-14-6-26v-3l26-11 11-3h5l1-5-15 4-19 6-9 4h-2l-5-16-6-15-8-18-6-11 1-2h15l26 4h7v-3l-10-2-27-3-16-1 3 10 6 10 6 14 6 16 6 19 5 19 3 16 4 18 3 19 1 1 1 39 1 11v16l-1 9-2 4-1 4h-3l-2-3 1 10h-25l2-1-2-13 6-3 12-2h5l-1-4-35 1h-8v-7l-4-7 1-4 9-4 34-12 1-4-14 4-5 2-11 2-12 4h-9l-1-3 2-5 10-5 11-3h3v-2l13-6 10-5 1-3-10 3-15 5h-6l2-6h2l1-4 2-5-1-7-6-25-2-5-3-11-7 3-6 4h-2v-2l16-10 14-9 7-4 1-4-9 4-17 9-2-2-6-12-5-7-7 1h-3l12-9 19-12h2v-5l-5 2-14 8-10 7-13 9-3-1v-2h2l1-3-5-1-7-20-8-19-1-5 26-8 18-5 1-3-18 3-18 5-8 3-5-1-3-4-2-4-1-7 4-8 5-3 9-2 35-1h17l23-3 4-1z" fill="#2E509E"/>
<path transform="translate(458,457)" d="m0 0 7 3 2 4h4v2h2l7 10 3 3 3 6 2 1 2 7h2l6 12 2 3 2 8 7 1 5-3 3-1 4 11 1 8 1 1 1 7 3 50 2 31v45l-1 26-2 26-1 5-1 21-2 13-1 1-3 22-1 2-1 11-8 27-1 6h-2l-1 8-2 7 4-1 5-5 6-4 5-1h8l8 3v2l7 2 2 4h2v2l5 2 1 3 4 2 6 7 9 20 3 7-4 2-24 1-90 2-11-1-5-3-7-8-4-4-9-17-1-5h-2l-5-12-7-21-2-9-5-18-5-27-2-26-3-36-1-5-1-23v-53l1-10 4-7 4-1 6 6 2 9 2 18h3l2-7 2-10v-19l-3-21 2-12v-8l1-9v-11l1-25 2-9 6-9 4-1 3 3 5 12 5 10 6 11v2l4-1 3-2 1-3 2-2v-14l-1-6-1-17v-29z" fill="#7E8EAA"/>
<path transform="translate(569,517)" d="m0 0h2l5 10 1 5h2l1 2 6-1 5 5 5 2 5 5v3h2l1 5 2 4 4-2 3-5 5-5 3-2h11l7 1 6-5 2-4 1-7 6-4 4-4 3 1 2 9 3 4v3h2l6 10 4 5h3l2 5 9-3 9-7 9-5 5-3 5-5 10-5 12-7h2v5l-4 3-8 4-3 1v2l-5 3-4 6v8h2v2l3 1 1 2v6l2 1 1 7v14h-2l-2 2-1-3 1-2h-5v2l-8-2h-4l10 6 4 1 7 1 2 2 5 1 2 4v3l2 1-3 2-1 3h9l-1 7-1 4 5 5 6 1-1 5v2l2 5 2 11-4 2-2 8-1 14-3 6-5 5-3 4h-2l-1 4-2 1-1 5-4 1v2l-4 2-3 6-4 5-5 6-3 3h-2l-2 6-4 4-5 6-6 2-2 4-7 2-7 4-6 2h-5l-1 2-5 1-5 2-13 1-6 2-15 1-6 1-7-2-14-2-19-8-4-3-8-2h-13l-3 1-8-4-4-8 2 12 8 25 5 17v3h2l2 10v5h-2l-4-13-9-25-8-22v-2l-4-1v-25l2-26 4-125 1-5h6l5 2 3-3 3-6 16-4 8-4 2-2-1-10-3-9-2-5z" fill="#E4E192"/>
<path transform="translate(1052,683)" d="m0 0h3v21l-4 26-3 16-5 15-2 12-3 8-7 20-3 7h-2l-3 11-4 7-2 1-1 4h-2l-2 5-11 14-7 8-13 9h-2v2l-16 5-32 2-75 2-8 1-27 1-94 1-66 2-1 1-37 1h-44v-8l1-7h2l2-5 4-5 9-6h11l17 3 5 1h18l33-2 2-1 16-2 19-4 25-5 14-4 2-1 11-1 5-2 16-3 15-4 10-4 8-4 5-3 11-6h2v-2l5-2 3-4 13-5 3-1v-2l9-4h3v-2l14-7 4-3h3l1-3 13-8 10-7 12-7 5-4 10-6h2l1-3 26-16 9-6 8-7 6-4 3-4 7-3 12-4h8l3 3 7-1 6-6z" fill="#1F548E"/>
<path transform="translate(949,391)" d="m0 0h23l11 3 3 3 5 3 4 5 8 7 4 4 5 10 4 4 11 21 4 12 3 5 4 12 3 13 3 6 2 11 2 5 1 11 2 12 4 32 2 28v48l-1 1-18-1-36-1-13-1-1-2v-48l1-3 3-3v-14l-5-4 6-7 5-5 8-11 2-5v-17l-5-12-5-3 6 14 1 5v11l-3 6-7 10-8 7h-3l-5-33-6-27-6-20-2-9-6-17-3-10h-2l-1-2 1 5 6 16 12 43 5 23 2 9 4 30-1 12 2 25 1 19v18l-1 1h-24l-10-1-32-1-3-6v-4l28-7 14-7 2-2v-7l-2-1-2 6-5 4-10 4-13 3h-12l-1-7v-20l32-11 19-8 3-5-19 8-8 1 4-8v-14l-4-22h-2l-3-12-2-7-2-4-3-1 1-8 4-15v-19l-6-3v11l-1 9-3 4v-2l-4 1-1-4-3-6-1-4h-2v-2h-2v-2l-4-2-6-4v-2l-6-2-1-2v-6l2-6 1-6-2-9-4-3-8-1-1-2h11l1-3-4-4-18-4-4-5-2-4-2-1v-7l4-2h4v-2l6-1 1-4h8v-2h27l4 3 5 1v-2l4-2z" fill="#2D509F"/>
<path transform="translate(456,620)" d="m0 0h1l2 16 1 6v9l3-16 2-7 2-1h6l6 4 9 8v2l4 2 7 12 2 10v19l-1 15-1 5v23l3 2 3 4 2 9 6 2 1 2-1 2 3-1 2 3 3-9h1v16l-1 1-3 22-1 2-1 11-8 27-1 6h-2l-1 8-2 7 4-1 5-5 6-4 5-1h8l8 3v2l7 2 2 4h2v2l5 2 1 3 4 2 6 7 9 20 3 7-4 2-24 1-90 2-11-1-5-3-7-8-4-4-9-17-1-5h-2l-5-12-7-21-7-35v-20l-2-1v-2h2l-3-4 1-6h2l1 2h2l1-6 6 1 1 2-2 1 1 3 2-2 6 7 4 2 5 6 3-1 2-13 3-4 3-15 2-3 4-35 2-15v-7l3-20 4-24z" fill="#3366AC"/>
<path transform="translate(453,373)" d="m0 0 54 1 20 2 22-1 5 2v2h-2v2l-10 6h-3v2l-16 6-2 2-13 5-5 3h-2l-1 3-4 4 3 8 6-2 5 1 10-1 15-5 8-4 5-1 1 3h2l5 12 7 21 4 17 6 23 3 17v8l-4 1-4-5-4-8v-2l-3-1-7-11-7-10-7-9-17-17v-2l-5-2-8-7-4-1 3 7 5 4 5 5 8 7 2 5 3 1 9 13 6 11 5 10 9 20v4h2l-1 5-5-5-9-12-12-14-7-6-3-3-5-1 3 20 2 16 3 27v55l-2-3-3-41-1-20-1-7-1-1-2-11-2-5v-3l-5 4-8 1-4-4-2-8-5-8-1-5h-2l-2-4v-3l-3-1-2-3v-3l-3-1-6-9-1-3h-2v-2h-4l-5-5-4-1-3 1 2 46 1 6v14l-3 3v3l-4 1-1 2-3-1-6-10-5-12-3-5-3-10-6 1-5 8-2 10-1 36-1 16-2 13 3 20v19l-2 10-3 7h-3l-2-9-2-14-2-5-5-4-3 1-3 6-1 10v53l1 23 2 17 2 24 1 9v10h-1l-4-30-1-9-1-1-1-7-1-33-1-14v-48l2-46 1-19 6-48 5-26 2-6 5-1 11 3 11-1 6-3 3-1 1-4h2v-8l-3-6-6-5-6-2-13 1-2-1v-9l5-15 6-13 4-8 7-10 5-6 8-6z" fill="#7999CC"/>
<path transform="translate(914,642)" d="m0 0 2 1v3h24l5 2 6 10 4 7v15l-7 12-6 7-5 4-7 8-9 9-8 10-3 3h-2l-2 6-8 5h-2v2l-6 5-5 3-4 2v2l-6 4h-3v2l-15 6-13 5-9 3-9 2-8 6-1 4-5 6-4 6-11 6-7 4h-6l-9-6-3-5-3-3 3-3-1-4 1-5h2l1-4 2-1 2-6v-2l-3-1-7-1h-11v-9l2-6 10-7h2l1-3h2v-2l3-3h2v-2l5-3h2l1-7 5-4 6-10 3-9 3-4 2-20 4-11 3-19 1-2-5-1 2-2 31-1 6-1h31l33 3z" fill="#4087C5"/>
<path transform="translate(634,377)" d="m0 0h29l36 1 11 1 131 2 6 1 111 2 13 3 6 3-4 1-14-3h-34l-50-2-34-1h-23l-2 2-20 2-13 1h-16l-29 1-9 2-5 2-2 7-1 2 2 7 3 6 4 3h-4l4 13 5 11 6 20 3 9 1 9v5l-3 1-3-2-10 7-9 7-5 1-1 3-2-3-3-10v-4h-2l-5-10 11-10 11-8 1-4-10 5-14 11h-2v2l-5 5h-2l-1 3-5 4-5 3-4 3-5-18v-10l15-14 8-6 11-8 1-3-6 2-5 3h-2v2l-5 3h-2l-1 3-8 6-8 7-3-2-6-17-3-12h-2l-5-10v5h2l14 42 1 12-15-2-5-3-2-4-11-3-2 1 2-13 3-18 6-16 4-7 7-1 5 4 5 5v-5l-8-8-2-1h-9l-3 6h-2l-2 9-3 7-2 8-5 19-1 9h-2l-3 18-1 11h-2l-1 4h-7l-9-5-3-10-6-21-1-6v-31l4-6 3-2v-4l-6 1-5 6-1 3v34l3 8 2 13 2 34v14l-3-2-1-10h-2l-1 4-6-22-2-12-3-6v-8l-6-20-8-24-4-11-4-9 1-4 2-1h8l4-4 6-3 9-6 15-6 8-2z" fill="#566FB4"/>
<path transform="translate(996,170)" d="m0 0h21l12 3 16 8 6 4 10 9 8 9 8 15 9 27 14 49 17 58 10 33 14 48 20 70 19 65 18 60 10 33 19 62 10 35 6 23 2 18v13l-2 13-7 14-8 10-9 8-19 13-44 26-16 9-24 13-12 6h-2l1-3 11-6 3-2 8-4h3l1-3 4-2 3-3 4-1 9-5 7-5 7-3 5-2 2-3 7-3 4-3 7-3 5-3 11-7 15-10 4-5 3-6 2-3h2l1-4 6-12 1-7 1-16-2-18-4-15-11-33-4-11-2-7-3-9-4-13-3-7-3-12-8-29-5-16-5-15-3-8-8-18-3-4 3 21 3 15 5 19 2 1 1 9 5 16 5 21 1 9-4-1-13-39-6-21-6-18-7-25-7-22-3-12-3-10-3-9-8-27-5-16-5-17-7-23-3-10-7-21-12-39-6-16-12-37-14-42-3-12-7-18-4-16-3-8-2-8-5-4-3-7-5-6-10-5-2-7 1-1h7l14 11 7 7 8 7 4 3 6 1 1-6 1-2h-2l-4-10-4-6-5-5-2-4-4-2v-2l-6-2v-2l-5-1-8-5-11-4-10-1h-12l-11 2-9 1-8-1-1-2-12 1-1-1h-9v-1l23-3z" fill="#FDFDFD"/>
<path transform="translate(555,404)" d="m0 0 3 4 4 9 3 10 10 30 3 11v8l3 6 3 15 4 15h3l2 10 1 1v-13l-2-34-3-16-2-5v-34l3-6 6-5 5 1-1 5-5 5-1 2v31l5 21 5 15 5 4 10 2 1-4h2v-11l3-16 1-2h2v-9l5-19 4-14 4-10h2l3-6 9-1 8 7 3 3v5h-3l-5-6-3-2h-7l-2 4-6 15-3 15-3 18 4 1 8 3 5 5 9 2 7 1-1-11-12-36-1-6h-2l-1-6 4 4 2 4v3h2l3 7 4 13 4 10 8-6 7-6 5-4 5-2v-2l8-5h5l-1 4-12 9-10 8-11 10v10l5 17 5-5 5-3 7-6 2-3h2v-2l19-14 4-2h3l-1 5-13 10-8 7 4 8v2h2l5 16 1-2 8-4 8-7h4l-1 5-9 8-6 7 1 8 3 14-6 5-4 4-10 6-10 7-3 2-8 2-2-5-4-2-6-8-2-6h-2l-3-6-2-3-1-7-4 1-4 5-3 1-2 9-5 6-4 2-6-1h-11l-5 5-3 1-2 5-5 3-3-5-1-3 1-2h-2l-3-5-5-4h-3l-2-5-8 1-1-3h-2l-5-12-1-3h-2l5 16 2 9-1 4-5 4-5 2-16 4-4 8-3 1-4-2-6-1-2 65h-1l-1-6v-72l-3-27-1-12-1-5-2-12v-7l7 1 1 3 4 2 7 7 9 11 11 14 2 2 1-4h-2l-5-13-9-20-6-10-7-11-7-8-5-6-8-6v-2l-3-1v-2l-3-1-2-4v-3l5 1 10 8 23 23 7 10 10 15 4 5 6 11 5 1-5-30-6-21-3-14-7-21-4-9-1-7h4z" fill="#D9E3B8"/>
<path transform="translate(979,397)" d="m0 0 5 1 4 8 1 7 2 2v3h2l8 13 5 9 4 4 1 4 2 1 1 4 6 9 5 9 2 14 3 4 3 9 3 11 3 8 1 7 4 6 1 1 1 13 3 6 1 4v7l-2 4 2 1v4l2 13 1 9 1 2 1 31 1 13 1 8-1 1-18-1-36-1-13-1-1-2v-48l1-3 3-3v-14l-5-4 6-7 5-5 8-11 2-5v-17l-5-12-5-3 6 14 1 5v11l-3 6-7 10-8 7h-3l-5-33-6-27-6-20-2-9-6-17-7-17-6-13 2-4 10-3 8-7h2l2-4 4-4z" fill="#1F3C7B"/>
<path transform="translate(1e3 187)" d="m0 0 7 1 4 5-2 4-7 8-18 11-16 6-10 4-15 7-13 5-12 6-16 7-14 7-19 9-14 7-16 7-16 8-20 9-17 8-11 5-15 7-16 8-7 4h-3v2l-22 10-19 9-9 5-9 6h-2l-1 7 10 2h27l25-1 21 4v2h2v2h-45l-31-1h-111l-7-1-1-3 7-4 12-5 16-8 19-8 30-14 11-5 10-4 10-5 10-4h2v-2l8-3 12-5 7-3 9-4 22-9 11-5 8-4 13-5 30-13 8-4 17-7h3v-2l16-6 20-8 13-6 34-14 16-7 15-6 13-6 20-7 15-2z" fill="#FEFEFE"/>
<path transform="translate(1035,770)" d="m0 0h2l1 7-4 16-6 15h-2l-3 11-4 7-2 1-1 4h-2l-2 5-11 14-7 8-13 9h-2v2l-14 4-100 3-89 2h-32v-1l7-2 5-2 25-2 8-1 14-7 11-5 2-6 6-4 2-5 7-3 1-3 31-9 10-3 12-6 22-9 11-3 11-5 15-6v-1l12-3 16-8 14-4 9-2 15-2 8 2v2l11-4 4-5z" fill="#1F3C7B"/>
<path transform="translate(520,758)" d="m0 0h1v19l-3 14 1 4 8 2v2l5 1 5 4v2l6 1 7 5 3 5v2h2l2 5 2 9 8 20-2-11-5-19 1-5 10-6h2v-2l6-2h14l12 3 9 2h26l21-2 18-4 22-5 9-2 8-5 9-3 13-7 4-4 8-4 5-5 7-2h10l5 3 1 3-3 6h-2l-1 4h-2v8l1 2-3 3 5 5 2 3 9 5-2 5-3 1-2 5h-2v4h-2v2h-2v2h-3l-1 4h-2l-1 3-11 4-16 4-21 4-24 5-11 1-2 1-39 2h-16l-1-1-17-3h-11l-9 6-6 9h-2l1 3-2 12 59-1v1l-14 1-1 1-46 1-10 3-4-1h-47l-35 1h-29l-1-3h15l83-2 24-1 3-2-10-21-4-8-7-6-4-4-2-1v-2h-2l-3-4-6-2v-2l-8-2h-8l-9 3-5 6-4 2-2-1 1-7 2-8h2l1-9 7-24 1-11 2-8z" fill="#757D97"/>
<path transform="translate(656,571)" d="m0 0 3 1v2h2v2h2l5 11 10 19 3 24 1 10 3 2-1-13 2-17 11-7 5-1 3 2-1 5-12 2-1 8 25-5 6-1 4 4-1 7-3 2-10 2-9 3v1l15-1h16v6l-4 4-29 4-13 4-5 1-5 4-3 6-4 5-5 2v2h-3l-1 4-4 3h-3l-2 4-6 3-13 4-6 1-12 3-5-1-7-1h-7l-4-2-8-2-2-2-8-2v-2l-5-1-2-1v-2l-5-2-1-4-4-4v-3l-3-1-6-9-5-4-4-2-5-1-2-1-1-5 1-8 4-9 3-2 7-2 5-8 12-7 6-3 3-3h7l1-3 4 1 2 4h2l10 10 4-1 1-5 5-9h3l1 2 5 1 8-6 5-2 14-2 6-5 3-10z" fill="#F6EB7A"/>
<path transform="translate(818,384)" d="m0 0h20l-4 3-12 3-6 2-9 1-11 2-1 4-2 6 16 1 22 2v2l-12-1-27-2 3 10 6 10 6 14 6 16 6 19 5 19 3 16 4 18 3 19 1 1 1 39 1 11v16l-1 9-2 4-1 4h-3l-2-3 1 10h-25l2-1-2-13 6-3 12-2h5l-1-4-35 1h-8v-7l-4-7 1-4 9-4 34-12 1-4-14 4-5 2-11 2-12 4h-9l-1-3 2-5 10-5 11-3h3v-2l13-6 10-5 1-3-10 3-15 5h-6l2-6h2l1-4 2-5-1-7-6-25-2-5-3-11-7 3-6 4h-2v-2l16-10 14-9 7-4 1-4-9 4-17 9-2-2-6-12-5-7-7 1h-3l12-9 19-12h2v-5l-5 2-14 8-10 7-13 9-3-1v-2h2l1-3-5-1-7-20-8-19-1-5 26-8 18-5 1-3-18 3-18 5-8 3-5-1-3-4-2-4-1-7 4-8 5-3 9-2 35-1h17l23-3 4-1z" fill="#3366AC"/>
<path transform="translate(849,645)" d="m0 0h31l21 2 5 3v7l-4 15-4 8-5 5-11 12-18 18-6 8-5 5-8 7-4 5-4 2-5 5-9 6-6 2-6 4-6 3-7 2-4 7-6 1-6 3h-3v-2l-3-1-7-1h-11v-9l2-6 10-7h2l1-3h2v-2l3-3h2v-2l5-3h2l1-7 5-4 6-10 3-9 3-4 2-20 4-11 3-19 1-2-5-1 2-2 31-1z" fill="#78B4DA"/>
<path transform="translate(524,723)" d="m0 0h1l1 20 3 1 6 16 11 31 4 10v5h2l-5-23v-7l9-4 2-1 15-1 14 4 7 3v2l7-1 14 3 43-4 13-4 14-4 18-10h2v-2l6-4 6-2h7l7-2 4 4 10 1 7 2 7 1v13l-7 8-9 5h-2l-1 3-15 8-11 4-7 4-20 4-15 4-11 2-23 2h-24l-9-2-12-3h-14l-6 1v2l-9 5-3 2 1 8 6 23-1 4-4-9-6-15-2-11h-2l-5-8-7-4-4-1-5-5-5-2v-2l-10-1 1-9 2-12 1-18 2-13z" fill="#AEB9A1"/>
<path transform="translate(952,444)" d="m0 0 2 1v2h2l5 13 6 16 2 10 6 21 5 23 4 28v5l5-3h2l2-4 5-5 5-8 1-3v-11l-3-10-3-6v-3l5 2 5 10 1 3v17l-4 8-10 13-7 7 5 4v14l-2 3h-2v53h13l36 1 18 1v-48l-2-28-4-32v-8l2 4 5 37 2 26v59l-2 34-1 6h-1v-13h-3l-3 11-7 7-7 1-3-3h-8l-12 4-8 4-5 5-8 7-9 6-13 8-16 10-3 3-13 8-10 7-8 5-14 9-5 3-1 2-11 6-6 3-4 1v2l-9 4h-3v2l-9 4-8 4-3 4h-4v2l-13 7-5 3-8 4-10 4-15 4-16 3-5 2h-7l4-4h2l1-4h3v-2h2v-2h2l1-6 5-5 3-4 10-4 11-1 16-3 8-1 9-3 9-2 5-5 3-1v-3l16-10 8-4 3-1v-2l11-7 17-11 8-7 11-8 12-10h3l2-4 6-4h2l2-4 6-4 5-5h2v-2l6-3 6-4 5-5 7-6 5-6 2-5 3-2 4-10-3-6-6-3-7-2-2-4-4-1v-2l-2 1h-8l-2-2 9-1v-18l-2-36-1-14 1-7-4-29-5-24-7-27-8-26-6-16z" fill="#3366AD"/>
<path transform="translate(161,426)" d="m0 0h2l-2 12 3 1 15-2h74l38-1 62 1h38l18-4 1 2-6 26-6 21-3 10-4-2-4-9-11-4-34-2-30-4-27-2-33-2-14-1-18-2-25-2h-28l-5-2v-2l-8-1-2 7-2-3-1-9 5-15 6-10z" fill="#FEFEFE"/>
<path transform="translate(910,410)" d="m0 0 4 2 8 12 4 7 3 13 3 6 5 14 2 3 4 19 2 3v4l2 1 1 5h2l4 8 4 4 4 13 2 3 3 14 2 3 1 8 1 3v5l1 5 1 9 1 4 1 10 2 11 1 20 3 11 2 10 1 4-1 2h-23l-10-1-32-1-3-6v-4l28-7 14-7 2-2v-7l-2-1-2 6-5 4-10 4-13 3h-12l-1-7v-20l32-11 19-8 3-5-19 8-8 1 4-8v-14l-4-22h-2l-3-12-2-7-2-4-3-1 1-8 4-15v-19l-6-3v11l-1 9-3 4v-2l-4 1-1-4-3-6-1-4h-2v-2h-2v-2l-4-2-6-4v-2l-6-2-1-2v-6l2-6 1-6-2-9-4-3-8-1-1-2h11l1-5 6 1 4-2 2-10z" fill="#203C7A"/>
<path transform="translate(811,827)" d="m0 0h5l2 5v3l-3 3h3l8-1 4-1 2 5-8 3-1 4-5 4-2 1-2 6-11 5-14 7-10 1-23 2-6 3h26l89-2 69-2h29v1l-32 2-75 2-8 1-27 1-94 1-66 2-1 1-37 1h-44v-8l1-7h2l2-5 4-5 9-6h11l17 3 5 1h18l33-2 2-1 16-2 19-4 25-5 14-4 2-1 11-1 5-2 16-3 15-4z" fill="#324274"/>
<path transform="translate(634,377)" d="m0 0h29l36 1 11 1 131 2v1h-102l-32-1v2l-7 2h-7l-3 1-44 1-10 1v3l5 5v3l5 1 2 3h7v1l-9 1-3 6h-2l-2 9-3 7-2 8-5 19-1 9h-2l-3 18-1 11h-2l-1 4h-7l-9-5-3-10-6-21-1-6v-31l4-6 3-2v-4l-6 1-5 6-1 3v34l3 8 2 13 2 34v14l-3-2-1-10h-2l-1 4-6-22-2-12-3-6v-8l-6-20-8-24-4-11-4-9 1-4 2-1h8l4-4 6-3 9-6 15-6 8-2z" fill="#87A6CB"/>
<path transform="translate(426,495)" d="m0 0 4 1 5 13 3 5 8 16 3 4 6 30h-4l-2-4-4-2h-6l-3 10-1 27v16l-2 17-6 36-1 3-1 26v14l1 14-2 16-5 5-3 1-7-9-1-3h-5l1-5-5 1 2 2-1 3h-2l-1 3v3l1 19 3 21 6 28-1 3-5-18-5-27-2-26-3-36-1-5-1-23v-53l1-10 4-7 4-1 6 6 2 9 2 18h3l2-7 2-10v-19l-3-21 2-12v-8l1-9v-11l1-25 2-9 6-9z" fill="#6B8CBE"/>
<path transform="translate(529,642)" d="m0 0h1l1 11v51l7 2 12 5 11 6 9 5 6 4 12 4 7 2 18 3 11-1h10l11-5h3l1-2 5-2 4-3h2l1-3h3l4-4h2l2-4h3l2-4h2v-2h3l2-4 9-9h2l2-4 4-5 4-3 2-7 3-5 5-5 2-3h2l2-4 2-3h2l1-3 10-4h5l-3 2-4 1v2l-4 3-3 10-1 12-1 5v9l-1 3v12l-6 8-5 6-3 3h-2l-2 6-4 4-5 6-6 2-2 4-7 2-7 4-6 2h-5l-1 2-5 1-5 2-13 1-6 2-15 1-6 1-7-2-14-2-19-8-4-3-8-2h-13l-3 1-8-4-4-8 2 12 8 25 5 17v3h2l2 10v5h-2l-4-13-9-25-8-22v-2l-4-1v-25l2-26z" fill="#D3D09B"/>
<path transform="translate(439,557)" d="m0 0h6l5 5 3 5 3 12 2 20 1 4 4-4 9 3 2 4 4 2 2 4h2l5 7 4 10 7 18 5 18h1l2 9 5 15v3h2l1 9h2l4 13 2 5 2 1v24l-1 5-2-4-2 8-1-3-2-1-3-1v-3l-6-3-3-9-6-6v-23l1-5 1-15v-19l-3-12-7-11-5-5-8-7-4-2h-8l-1 7-2 8-1 10-2-4v-8l-3-16-4 20-3 24-1 5-1 10-4 38-2 10-2 5-3 13-2 2-2 11-4 4-2-4-3-1-1-2-5-3-4-4h-3l-1-4 2-1-6-2-1 6-3 1v-3h-2v6l2 4h-2v2l3 1-1 15h-1l-3-21-1-19v-3l1-2 3-1-1-4-1-2h6l-1 5 6-1 3 7 5 5 4-1 2-4 2-18-1-15v-21l1-16 2-10 5-29 2-17v-18l1-25 3-10z" fill="#566FB4"/>
<path transform="translate(1018,811)" d="m0 0h5l-1 7h-2l-1 8-2 1-1 4h-2l-2 5-11 14-7 8-13 9h-2v2l-14 4-100 3-89 2h-32v-1l7-2 5-2 25-2 21-2 20-3 19-5 36-12 16-3 27-9 20-7 22-8 15-3 22-1 10-2 8-4z" fill="#1B305C"/>
<path transform="translate(646,885)" d="m0 0h13l-1 5-4 2v2l-10 7-22 16-7 5h-3v2l-10 7-2 5 2 8 1 7 1 12-2 3-4-9-6-12-2-1v-2l-15-3h-6l-9 4h-2l-1 2-10 4-10 6-6 4-14 7h-2v2l-8 4-18 10-14 8-12 7-7 5h-3v2l-11 6h-3v2h-4v2l-12 7-9 7-9 1-12-5-3-4 1-7 7-6 20-11 16-9 16-8 19-10 28-14 38-20 18-10 11-6 7 1 3 2h5l2-9-1-10-4-12 3-2 6 1 3 9 2 4 7-1 5-4h3v-2l8-6 11-3 9-1z" fill="#FDFDFD"/>
<path transform="translate(767,408)" d="m0 0h8l-1 4-18 5-23 7h-3l8 19 7 19 1 6h6l-2 4h-2l1 2 5-2 11-8 16-10 10-6 3 1-1 5-24 15-8 6 4-2h5l7 10 6 11 17-9 6-3h3l-1 5-12 7-17 11-6 4h-2v2l11-7h4l3 6 2 9 2 6 6 23-1 6-3 7h-2l-1 5 3 2-8 2-11 3-5 1v2h-9l1 25 2 29v10l-1 3h-2l-4-7v-10l-3-17-3-22v-8l-2-4-1-13-4-15-1-13-1-7 1-5-16 9-3 2-3-1-3-14-1-8 4-5h2l2-4 8-7 1-4-2-1 6-4 2 1h3v-9l-3-12-3-9-6-17-5-11-1-8 12-4 8-3z" fill="#9FB9D4"/>
<path transform="translate(932,921)" d="m0 0 9 1 2 1v2l9 3 8 5 7 4 10 8 6 7 1 6-11 6-10 6-22 12-20 9-40 20-13 6-10 3-12 2-5 1-6-3-4-1v-5l6-8h2v-2h2v-2h2v-2h2v-2h2v-2l8-7 3-1v-2h2l1-3 11-9 4-4 8-7 4-4h2v-2h2v-2l10-8 13-11 5-4h2v-2l5-5z" fill="#D1D2D4"/>
<path transform="translate(811,477)" d="m0 0 6 2 3 3h1l6 29 4 18 3 19 1 1 1 39 1 11v16l-1 9-2 4-1 4h-3l-2-3 1 10h-25l2-1-2-13 6-3 12-2h5l-1-4-35 1h-8v-7l-4-7 1-4 9-4 34-12 1-4-14 4-5 2-11 2-12 4h-9l-1-3 2-5 10-5 11-3h3v-2l13-6 10-5 1-3-10 3-15 5h-6l2-6h2l1-4 2-5-1-7-6-25-2-5-3-11-7 3-6 4h-2v-2l16-10 14-9 7-4 1-4-5 2-3-1 8-4h2z" fill="#4188C5"/>
<path transform="translate(467,627)" d="m0 0h6l6 4 9 8v2l4 2 7 12 2 10v19l-1 15-5 34-6 26-8 22-6 11-7 9-5 3h-5l-1-15v-53l1-39 1-16 1-28 1-10 4-15z" fill="#4B5675"/>
<path transform="translate(453,373)" d="m0 0 54 1 20 2 22-1 5 2v2h-2v2l-10 6h-3v2l-16 6-2 2-13 5-5 3h-2l-1 3-4 4 3 8 6-2 5 1 10-1 15-5 8-4 5-1 1 3h2l5 12 7 21 4 17 6 23 3 17v8l-4 1-4-5-4-8v-2l-3-1-7-11-7-10-7-9-17-17v-2l-5-2-8-7-4-1 3 7 5 4 5 5 8 7 2 5 3 1 9 13 6 11 5 10 9 20v4h2l-1 5-5-5-9-12-12-14-7-6-3-3-5-1 3 20 2 16 3 27v55l-2-3-3-41-1-20-1-7-1-1-2-21-3-18-1-1-1-11-4-14-1-11h-2l-2-10-2-4-2-9-4-8-5-8-3-9-1-9h3l7-1 14-7 7-3v-3l-5-2v-4l-5-2-19-1h-21l-19-1z" fill="#B0D4E6"/>
<path transform="translate(896,490)" d="m0 0h1l4 16 2 10 2 16 1 1 1 8v18h2l1 20v17l-2 2 1 7 1 6v8l-2 6-1 6 2 1v3l3 7v5l-16-1-9-1-3-2-8-1 3-2 12-2h5v-2l6-1 1-4-12 2-36 3h-12v-17l2-2 9-1v-2l26-5 16-5h2v-4l-17 4-32 6-7 1-1-9v-23l2-3 15-6 21-11 16-10 3-1 1-5-3-1v-3l-5-3-6-9 1-12h2l-1-4 7-9-1-8h2z" fill="#3567AC"/>
<path transform="translate(777,648)" d="m0 0h33l6 2-1 4-3 18-4 10-2 20-4 7-2 6-7 11-4 3-2 7-5 3h-2v2h-2l-1 3h-2v2l-10 8-5 3h-10l-6-2-9-1-3-4 2-5 3-10 4-14 4-7 3-7 4-8h2v-3h-2v-6l-2-4 1-10 3-3h2l1-4h2v-6l7-2 6-2 2-9z" fill="#ACC5D4"/>
<path transform="translate(520,758)" d="m0 0h1v19l-3 14 1 4 8 2v2l5 1 5 4v2l6 1 7 5 3 5v2h2l2 5 2 9 8 20-2-11-5-19 1-5 10-6h2v-2l6-2h14l12 3 9 2h26l21-2 18-4 22-5 9-2 8-5 9-3 13-7 4-4 8-4 5-5 7-2h10l5 3 1 3-3 6h-2l-1 4h-2v8l1 2-5 3-22 7-11 2-28 5-17 3-9 1-2 1-15 1-5 1-35 2-2-1-11-1-16-4-6-1-7 2-5 3-4 4-4 6-3 3 1 8 7 27v3h2l3 13h59v1l-14 1-1 1-46 1-10 3-4-1h-47l-35 1h-29l-1-3h15l83-2 24-1 3-2-10-21-4-8-7-6-4-4-2-1v-2h-2l-3-4-6-2v-2l-8-2h-8l-9 3-5 6-4 2-2-1 1-7 2-8h2l1-9 7-24 1-11 2-8z" fill="#7E8EAA"/>
<path transform="translate(1052,683)" d="m0 0h3v21l-4 26-3 16-2 6-1-3 3-20 2-6h-2l-1 4h-2l-2 6-5 5-2 1h-11l-16 4-17 6-14 8-13 5-16 8-15 6-8 5-11 5-14 6-12 4-10 4-8 3-12 3-8 3-4-1 3-4 13-5 3-1v-2l9-4h3v-2l14-7 4-3h3l1-3 13-8 10-7 12-7 5-4 10-6h2l1-3 26-16 9-6 8-7 6-4 3-4 7-3 12-4h8l3 3 7-1 6-6z" fill="#215DA5"/>
<path transform="translate(555,404)" d="m0 0 3 4 4 9 3 10 10 30 3 11v8l3 6 3 15 2 7v5l-4-5-2-1 2 8v12l-2 5-5-1-4-8v-2h-2l5 16 2 9-1 4-5 4-5 2-16 4-4 8-3 1-4-2-6-1-2 65h-1l-1-6v-72l-3-27-1-12-1-5-2-12v-7l7 1 1 3 4 2 7 7 9 11 11 14 2 2 1-4h-2l-5-13-9-20-6-10-7-11-7-8-5-6-8-6v-2l-3-1v-2l-3-1-2-4v-3l5 1 10 8 23 23 7 10 10 15 4 5 6 11 5 1-5-30-6-21-3-14-7-21-4-9-1-7h4z" fill="#D8E3B9"/>
<path transform="translate(849,645)" d="m0 0h31l21 2 5 3v7l-4 15-4 8-5 5-11 12-18 18-6 8-5 5-8 7-4 5-4 2-5 5-9 6-6 2-6 4-6 3-7 2-4 7-6 1-6 3h-3v-2l-3-1-7-1h-11v-9l2-6 10-7h2l1-3h2v-2l3-3h2v-2l8-4v5l-1 2 5 10v2l5-3h6l2-4 4-2 2-4 11-9 7-10h2l2-5 3-1v-2l13-13 11-13h2l1-5 6-8 2-11 3-5-1-5-4-3-20-4z" fill="#61A5D2"/>
<path transform="translate(707,381)" d="m0 0h32l108 1v1l-79 1-9 3-12 1-6 1-13 1h-13l-27-1 1 6-2 11 2 4-1 8 5 10v6l5-3h9v1l-6 2-5 3h-2v2l-5 3h-2l-1 3-8 6-8 7-3-2-6-17-3-12h-2l-5-10v5h2l14 42 1 12-15-2-5-3-2-4-11-3-2 1 2-13 3-18 6-16 4-7 7-1 5 4 5 5v-5l-8-8-2-1v-2l-8 1-2-4-4-1-3-6-3-2 1-4 10-1 44-1 8-1 9-1z" fill="#6C8DBE"/>
<path transform="translate(914,642)" d="m0 0h1l1 5 5 1v2l2 1 1 5 1 3-1 2 2 1-1 5-2 2-4 8-2 3h-2l-2 5-1 2h-2l-2 4-15 15-8 7-3 4h-2l-2 4-4 4-8 7-5 2-2 4h-2v2h-2l-2 5-5 5-6 5-5 5-4 5h-3l-1 6-3 7-1 3-6 4-2 5-5 6-4 6-11 6-7 4h-6l-9-6-3-5-3-3 3-3-1-4 1-5h2l1-4 2-1 3-6 10-5h3l5-7 9-3 10-6 6-2 9-6 5-5 6-4 5-5 8-9 5-5 9-10 19-19 4-5h2l7-14 3-13v-7l-3-2h11z" fill="#5C97C7"/>
<path transform="translate(873,421)" d="m0 0 9 1 9 3 4 4-2 4h-10l10 2 4 5 1 8-2 10-1 1v8l6 2 3 3 7 5v2h2v2h2l6 12 4 1 1-2 2-20 5 1-3 2 1 7v11l-3 12-7 14-9 10-1 2h-3l-11-44-5-15 1 7 3 8-1 7v4l-1 5-6 9v3h-2v13l5 6v2l5 2 3 3-8 6-15 9-9 4-12 5-5 3-11 3-1-5v-13l9-6 10-9h2l2-4 5-5 11-14 8-14v-2l-2-2 2-5-4-1-5-5v-12l-3-7h2v-2h2l-1-14 3 1 3 6 1 3h2l-6-16-2-7-3-1-3-11v-4z" fill="#2D509E"/>
<path transform="translate(532,732)" d="m0 0 2 2 3 7 9 4 5-1h10l10 3 8 5 13 5 19 3 4 1 4-1 15-1 6-2 13-1 7-3 9-2 10-4 6-3 5-2 4-4 3-1 2-3h3l2 6 2 1 2 6 3 1v2l3 1-5 5-4 1v2l-20 11-14 4-5 2-8 2-32 3-12 1-13-3h-7v-2l-6-1-7-3-8-2-15 1-10 4v7l1 8-2-3-12-40-3-11z" fill="#BCC49F"/>
<path transform="translate(522,830)" d="m0 0h8l8 3v2l7 2 2 4h2v2l5 2 1 3 4 2 6 7 9 20 3 7-4 2-24 1-44 1h-34l1-3 8-7 10-8 4-4 2-1 2-16 3-10 1 2 4-1 5-5 6-4z" fill="#3D5178"/>
<path transform="translate(784,812)" d="m0 0h2l-2 5-3 1-2 5h-2v4h-2v2h-2v2h-3l-1 4h-2l-1 3-11 4-16 4-21 4-24 5-11 1-2 1-39 2h-16l-1-1-17-3h-11l-9 6-6 9h-2l1 3-2 11-2-2-3-15-2-12 8-10 5-5 6-3h7l22 5h34l35-5 6-2 6-1 6-2 20-4 6-1v-2l13-2 25-7z" fill="#586A8A"/>
<path transform="translate(404,482)" d="m0 0 7 2v2h16l6 3v2h2l4 9 8 15 4 5 3 5 1 6-4 1-1 2-3-1-6-10-5-12-3-5-3-10-6 1-5 8-2 10-1 36-1 16-2 13 3 20v19l-2 10-3 7h-3l-2-9-2-14-2-5-5-4-3 1-3 6-1 10v76h-1l-1-21v-80l3-50 5-43 3-15h2l1-5z" fill="#7999CC"/>
<path transform="translate(520,534)" d="m0 0 2 2 3 24 3 41 1 20v45l-1 26-2 21-1 4h-2l-7-26v-3h-2l-4-17-5-16-3-9v-48l-1-17-3-21v-8l1-3 5-3 5 1 4 1 3-2 3-10z" fill="#5982B9"/>
<path transform="translate(910,410)" d="m0 0 4 2 8 12 4 7 3 13 3 6 3 9 3 13 1 23 2 10 4 12 5 4 5 10 2 6v7l3 9 1 13 7 7v3l-19 8-8 1 4-8v-14l-4-22h-2l-3-12-2-7-2-4-3-1 1-8 4-15v-19l-6-3v11l-1 9-3 4v-2l-4 1-1-4-3-6-1-4h-2v-2h-2v-2l-4-2-6-4v-2l-6-2-1-2v-6l2-6 1-6-2-9-4-3-8-1-1-2h11l1-5 6 1 4-2 2-10z" fill="#1F3C7B"/>
<path transform="translate(737,754)" d="m0 0h8l7 2 7 1v13l-7 8-9 5h-2l-1 3-15 8-11 4-7 4-20 4-15 4-11 2-23 2h-24l-9-2-12-3h-14l-6 1v2l-9 5-3 2 1 8 6 23-1 4-4-9-6-15 1-3 3 7-4-16-3-11v-7l11-2 15-2 6 1v2l8 1 5 1 9 2h31l7-1 11-1 18-6 12-6 7-2 6-4 7-2 3-1 1-4h3v-2l5-4h2v-2h2v-2h2v-2l4-2v-2h3v-2l4-2z" fill="#9AA7AF"/>
<path transform="translate(709,201)" d="m0 0h11l-1 2h-7l-6 2-14 1-9 2-9 3-17 4-5 3-8 2-10 3h-3v2l-14 7-9 3-19 9-7 3-13 5-12 4-9 5-8 4-11 3-10 5-12 2v2l-15 7-5 2h-8v2l-8 4-12 4-12 6-7 1-6 4-7 3-8 1v2l-10 5-9 4-8 3-12 5-7 3-10 5-4 1-7 3-8 2-6 3h-3v2l-14 5-7 2-16 8-10 2-4 3-18 6-16 8-21 7-5 3-15 5-3 2-7 2v-4l27-12 29-12 45-19 41-17 26-11 48-20 78-32 43-18 41-17 28-12 36-15 15-5 14-3z" fill="#FDFDFD"/>
<path transform="translate(650,416)" d="m0 0 4 4 2 4v3h2l3 7 4 13 4 10 8-6 7-6 5-4 5-2v-2l8-5h5l-1 4-12 9-10 8-11 10v10l5 17 5-5 5-3 7-6 2-3h2v-2l19-14 4-2h3l-1 5-13 10-8 7 4 8v2h2l4 14-1 6-10 7-16 6h-4v-4l-1 3h-2l-1-2 1 15-2 2-4-5-5-13-7-4-5-8-1-10 1-8-1-4-5 3-3 5-6 8-5-2-3-9-1-6v-10l2-8 4 1 8 3 5 5 9 2 7 1-1-11-12-36-1-6h-2z" fill="#AFD1E0"/>
<path transform="translate(438,552)" d="m0 0 5 2 1 3-5 1-3 10-1 27v16l-2 17-6 36-1 3-1 26v14l1 14-2 16-5 5-3 1-7-9-1-3h-5l1-5-5 1 2 2-1 3h-2l-1 3v3l1 19 3 21 6 28-1 3-5-18-5-27-2-26-3-36-1-5v-42l5-5 6 3 5 10 4 9h4l2-9 6-21 3-8 3-16 2-13 1-4v-9l1-7 2-24 3-5z" fill="#5983BA"/>
<path transform="translate(818,384)" d="m0 0h20l-4 3-12 3-6 2-9 1-11 2-1 4-2 6 16 1 22 2v2l-12-1-27-2 2 5-1 3-3-6-6-4-1-4-4-1-5-3-2 1-2 6-16 4 13-2h9l1 6-5 3-8 2 1 4v3h2l2 6-2 13v5l-2 6-2 7-2 5-11 8h-2v-2h2l1-3-5-1-7-20-8-19-1-5 26-8 18-5 1-3-18 3-18 5-8 3-5-1-3-4-2-4-1-7 4-8 5-3 9-2 35-1h17l23-3 4-1z" fill="#5670B3"/>
<path transform="translate(792,407)" d="m0 0h16l27 3 10 2 1 4-1 1-15-1-18-3h-15l2 5 6 11 5 13 3 5 8 24v3l16-7 14-4 11-3h4l-1 5-16 4-26 11 4 15 5 21 4 23v8l5-3 9-7 5-5 8-7 8-9 7-11 4-7 4 1-2 6-9 14-11 14-10 9-12 10-3 1v18l15-6 8-4 15-7 16-9 2-2h4l-1 5-16 10-16 9-12 6-11 4-1 2v23l1 8 6-1 41-8 8-1v4l-18 6-21 4h-5v2l-9 2-1 1v14l-1 3 60-5-1 5-26 4-26 2-6 1 5 2v1l-6 1h-29l-1-2 16-1-2-16 5 4 2-6 1-4 1-12v-12l-1-10-1-39-2-7-4-24-3-11-5-25-11-33-6-15-8-16-3-7z" fill="#69A7CE"/>
<path transform="translate(1043,747)" d="m0 0h1v12l-2 9-4 13-2 3 1-14-5 3-5 5-9 2v-2h-6l-5-1-12 2-16 4-7 2-16 8-11 3-3 2-23 9-3 2-12 3-24 10-12 6-23 6-13 4-3-1-9 2-5 1-2-2h2l1-3 9-3 13-5 8-3 21-7 8-4 17-6 19-8 20-9 5-1v-2l16-7 16-8 12-5 5-1v-2l14-5 6-3 10-3 9 2h8l6-5z" fill="#1E4A8A"/>
<path transform="translate(1042,775)" d="m0 0 3 1 3 9 6 2 22 3 27 5 21 2 36 5 43 6 10 2 5 2 2 4v5l-4 4-2 1-13-1-85-13-34-7-29-3h-12l-5 4-4 6-5 4-2-2 5-13 6-17 3-4z" fill="#FDFDFD"/>
<path transform="translate(405,746)" d="m0 0 6 1 1 2-2 1 1 3 2-2 6 7 4 2 2 8 3 20 4 11 5 5 4 8-2 5-3 3-5 2-3 1-2-3-2 3-2-1 1-4h-2v2l-5-2v2l4 1-2 16 1 1 1-7 7 3 8 10 11 7 5-1 7-1 5-2 4-1 1-3h2l2-5 2-4 3-1 2 1v2l3-3 3 1-2 9h-2v2h-2l-2 4-3 3-6 3-5 3-1 4v-2l-6 4-4 1-2 6h-3l-1 2-9-8-5-8-4-4-5-10-4-2 4 9 8 16 1 5-3-3-7-15v-2h-2l-5-12-7-21-7-35v-20l-2-1v-2h2l-3-4 1-6h2l1 2h2z" fill="#3A72B3"/>
<path transform="translate(469,473)" d="m0 0 4 1v2h2l8 16 6 17 4 14 4 21 5 37 1 17v42l-2 2-2-6h-2l-8-23v-3h-2l-1-8-7-23-5-22-1-14-1-15-2-20-2-18v-15z" fill="#757D97"/>
<path transform="translate(811,477)" d="m0 0 6 2 3 3h1l6 29 4 18 2 13-1 7-3 2-6 14-3-2 2-4-10 3-15 5h-6l2-6h2l1-4 2-5-1-7-6-25-2-5-3-11-7 3-6 4h-2v-2l16-10 14-9 7-4 1-4-5 2-3-1 8-4h2z" fill="#5882BA"/>
<path transform="translate(1e3 436)" d="m0 0 5 5 2 4 1 3 2 1 1 4 6 9 5 9 2 14 3 4 3 9 3 11 3 8 1 7 4 6 1 1 1 13 3 6 1 4v7l-2 4 2 1v4l2 13 1 9 1 2 1 31 1 13 1 8-1 1-18-1-36-1-13-1-1-2v-48l1-3 3-3v-14l-5-4 6-7h2v2l7-1 6 2 4 13-1 14-3 11-3 6-5 6-5 5-4 6-1 6 1 3 2 1v2l10 3 21 1h24l1-1 1-9-1-10-2-5-1-10-2-5-1-16-3-13-4-25-2-9-4-23-1-8-5-18-4-14-2-8-9-20-5-8z" fill="#1E4A8A"/>
<path transform="translate(413,426)" d="m0 0 2 4 3 1h11l2 2 13 5 8 7 4 7v36l1 17 1 6v14l-3 3-7-11-6-9-6-12-1-5h-2l-3-3-4-1h-13l-2-1v-2l-9-1-1 5h-2l-3 23-5 47-2 38v101h2l2 17 2 24 1 9v10h-1l-4-30-1-9-1-1-1-7-1-33-1-14v-48l2-46 1-19 6-48 5-26 2-6 5-1 11 3 11-1 6-3 3-1 1-4h2v-8l-3-6-6-5-6-2-13 1-2-1v-9z" fill="#87A6CC"/>
<path transform="translate(456,620)" d="m0 0h1l2 16 1 6v43l-1 21-1 43v55l4 1-4 1v2l-5 1-9-6-4-5-3-8v-19l3-22 2-19v-11l4-35 1-10 4-29z" fill="#3F5DA5"/>
<path transform="translate(975,439)" d="m0 0 4 2 5 15 3 4 4 9 5 11 4 11 6 9 7 10 2 5v3h2l4 17 4 21 2 6 2 13 2 4 3 21 3 13 2 23-2 4-7 2-9-1-4-3v-55l-1-14-3-15-2-6h-2v-24l-2-7h-2l-3-7-3-3-2-13-5-5-9-10-7-8-6-5v-11l3-12z" fill="#1A2F5C"/>
<path transform="translate(634,377)" d="m0 0h29l36 1v1l-47 1-15 2-5 2-21 5-8 3-6 4h-3v2l-6 4-4 1-1 3-6 2 1 8 5 9 2 8 1-5h1l1 27 3 8 2 13 2 34v14l-3-2-1-10h-2l-1 4-6-22-2-12-3-6v-8l-6-20-8-24-4-11-4-9 1-4 2-1h8l4-4 6-3 9-6 15-6 8-2z" fill="#9FBAD4"/>
<path transform="translate(165,470)" d="m0 0 11 1 5 5 4 9 3 11 2 7 3 9 3 13 3 15 3 20 4 15 3 7 5 18 4 9 10 31 4 10 1 4 1 9-3 1-11-27-10-26-5-12v-3l-2-1-3-9-3-8v-3l-2-1-3-9-10-25-8-21-3-9-3-8-4-13-3-10v-7z" fill="#FEFEFE"/>
<path transform="translate(759,839)" d="m0 0h7l-2 2-8 4-13 6-18 6-8 4-9 3-7 1-1 2-13 3-24 3-14 1h-21l-6-1v-2l-4 1-7-3-6 1-10 4-1 2h-3l-1 3h-2v5l33-1h39v1l-37 1h-44v-8l1-7h2l2-5 4-5 9-6h11l17 3 5 1h18l33-2 2-1 16-2 19-4 25-5 14-4z" fill="#4C5775"/>
<path transform="translate(817,559)" d="m0 0h5l-1 4-20 10h-3v2l-14 4-10 5-1 6h9l15-5 11-2 11-4h5l-1 5-40 14-3 2 1 5 3 5-1 7 10-1 33-1 1 5-17 3-5 3 1 5v7l11 1v1h-52l-2-23-2-37 1-4h9v-2l18-6 8-2 15-5z" fill="#BDD2B4"/>
<path transform="translate(655,484)" d="m0 0 2 2-1 12 2 8 3 4v2l6 2 4 6 4 11 2 2 1-5-1-11v-9h1l1 11h2l-1-3h2v4l20-7 9-6 4-6 8-4 8-7h4l-1 5-9 8-6 7 1 8 3 14-6 5-4 4-10 6-10 7-3 2-8 2-2-5-4-2-6-8-2-6h-2l-3-6-2-3-1-7-4 1-4 5h-3l-5-13v-10l6-11z" fill="#D9E3B8"/>
<path transform="translate(520,758)" d="m0 0h1v19l-3 14 1 4 8 2v2l5 1 5 4v2l6 1 7 5 3 5v2h2l2 5 2 9 7 18 4 13 4 8 2-1 3 13h59v1l-14 1-1 1-46 1-10 3-4-1h-47l-35 1h-29l-1-3h15l83-2 24-1 3-2-10-21-4-8-7-6-4-4-2-1v-2h-2l-3-4-6-2v-2l-8-2h-8l-9 3-5 6-4 2-2-1 1-7 2-8h2l1-9 7-24 1-11 2-8z" fill="#747D97"/>
<path transform="translate(551,371)" d="m0 0 5 1-1 4 11 1 3 1 1 2 12-1 19-2 2-1h78l31 1 13 1 53 1v1h-68l-11-1-36-1h-29l-26 1-13 4-10 4-10 7-7 3-3 3h-7l-2 1-2 6h-4l1 4h-2l-2-2-11 4-12 5-8 2h-8l-4-1-5 2-2-2-2-8h2l1-3 5-4 14-7 5-2 12-5 5-1v-2l8-4 5-2v-2h2v-2l-5-1-26 1-16-2-34-1v-1h70z" fill="#D6DDE5"/>
<path transform="translate(811,827)" d="m0 0h5l2 5v3l-4 4-3 2-12 4-17 9-9 3-8 2-3 2-9 2-22 6-12 2-1 1-17 2-7 1-36 2h-35l-13-2-6 1-8 4-1 4h-7v-5l3-3h3l1-3 12-5 8 1 4 2h3v2h32l16-2 19-2 9-2 5-3 11-3 9-4 24-9 9-4 10-5 9-3 16-3 15-4z" fill="#3C5178"/>
<path transform="translate(838,384)" d="m0 0 41 1 50 2h30l21 4 3 3-9-1-2-1h-23l-22 2-4 1v2h-5l-4-3h-16l-11-1v2l-8 1-1 3-6 1v2l-7 2-1 7 3 1 5 8 1 2h-2v4l-3 1v-2h-3l-1-6h-3l-5-6-5-5-2-5-4-2-1-3-3-1-2 5-7 1-5 4v1l-26-2-8-1 1-6 2-4 5-2 12-2 8-1 7-2z" fill="#3F5DA5"/>
<path transform="translate(843,646)" d="m0 0 12 1 7 3 3 4v5l-5 9-7 9-2 2h-3l-2 4-5 4-10 5-4 3-10 4-12 7h-3l3-4 2-20 4-11 3-19 1-2-5-1 2-2z" fill="#77C8E0"/>
<path transform="translate(551,415)" d="m0 0 3 4 5 12 6 20 2 10 6 23 3 17v8l-4 1-4-5-4-8v-2l-3-1-7-11-7-10-7-9-17-17v-2l-5-2-9-8 4-1 10 1 6-4 9-2v-2l10-5z" fill="#88A6C9"/>
<path transform="translate(767,408)" d="m0 0h8l-1 4-18 5-23 7h-3l8 19 7 19 1 6h6l-2 4h-2l2 4-3-1-2-6 2 12 4 17 6 37 3 36-1 7-4-4-4-5-6-22-1-13-1-7 1-5-16 9-3 2-3-1-3-14-1-8 4-5h2l2-4 8-7 1-4-2-1 6-4 2 1h3v-9l-3-12-3-9-6-17-5-11-1-8 12-4 8-3z" fill="#779ACC"/>
<path transform="translate(782,504)" d="m0 0h4l3 6 2 9 2 6 6 23-1 6-3 7h-2l-1 5 3 2-8 2-11 3-5 2h-6l-2-22-5-21-1-13 5-4 8-5 5-1z" fill="#77C8E0"/>
<path transform="translate(742,528)" d="m0 0h2l1 6 1 13 4 15 1 13 2 4v9l3 21-1 5 2 20 3 7v5l-5-1-2-11-2-4h2l1-5h-6l-5-4-1-4 3-9-10 1 2-5 2-1-4-8-5-1-3-2h-10l-4-4-6-4v-1h7l6 3v-2h5v3l3-1v-13l-1-7-3-9-2-1v-2h-2l-1-8 7-9h3v-2l8-5z" fill="#BCC59F"/>
<path transform="translate(928,514)" d="m0 0 1 3 4 1 3 6 2 9 1 8h2l3 10 2 14v12l-3 6v3l-10 3-7 3-7 2h-4l-2-12-2-21-2-16 1-7 7-8 8-11z" fill="#225CA3"/>
<path transform="translate(983,396)" d="m0 0 8 4 4 5 8 7 4 4 5 10 4 4 11 21 4 12 3 5 4 12 3 13 3 6 2 11 2 5 1 11 2 12 4 32 2 28v43l-2-3-1-18-1-26-2-9-1-9-2-11 1-4v-7l-2-6-2-4-1-13-3-3-2-4-2-9-3-8-2-9-4-10-2-3-2-14-9-16-3-4 1-2-4-2-1-5-4-4-4-7-7-11v-2h-2l-3-5-2-10-3-5z" fill="#3457A2"/>
<path transform="translate(935,462)" d="m0 0 4 5 4 19 2 3v4l2 1 1 5h2l4 8 4 4 4 13 2 3 3 14 2 3 1 8 1 3v5l1 5 1 9 1 4 1 10 2 11 1 20 3 11 2 10 1 4-1 2h-23l-10-1-32-1-3-6v-4l7-2h5l-4 2h3 8l5 1v2h2v2l4 1 3 2 25 3-1-4v-9l-2-4-1-19-2-1 1-12v-10l1-6-4 2 2-3v-6l-7-7-1-13-3-11v-5l-3-8-4-8-5-4-5-14-1-11-1-20z" fill="#1E4A89"/>
<path transform="translate(650,410)" d="m0 0h5l5 4 5 5 1-5 2 4-1 4 3 1 5 6v6h2l2 9-5 5-1 3h-2l-1 6-3-2-6-17-3-12h-2l-5-10v5h2l14 42 1 12-15-2-5-3-2-4-11-3-2 1 2-13 3-18 6-16 4-7z" fill="#87A6CB"/>
<path transform="translate(483,685)" d="m0 0 3 1 3 7 6 2 2 4v10l-2 24-6 26-5 14-2 1-7 14-3 3h-2v-2h-2l-1-4 3-21 1-5 1-16 1-6v-10l1-3v-14l1-11 3-4 3-9z" fill="#334274"/>
<path transform="translate(837,475)" d="m0 0h6l5 6 6 11 5 10 7 21-9 9-5 2-2 4-11 9h-3l-4-25-3-14-5-22v-5l5-3z" fill="#4087C5"/>
<path transform="translate(398,1034)" d="m0 0 10 2 13 4 11 4 10 4 13 5 18 7 16 5 12 5 16 5 11 4 14 5 22 8 4 2 8 2 15 5 7 3 10 3 5 2 1 2h5l5 3 9 4 10 6v2l-5 1-13-4-9-3-10-5-10-3-7-3-11-3-9-4-19-6-12-5-12-4-14-5v-2h-6l-9-4-17-6-20-8-15-5-16-6-14-5-16-8-2-3z" fill="#D1D2D4"/>
<path transform="translate(463,680)" d="m0 0 5 1 2 5 1 5v8l4-2 2-5 2-2-1 7-2 2-1 17v8l-1 3v12l-1 4-1 18-2 7-2 21h2v2l5-5 7-13 1 3-8 16-7 9-5 3h-5l-1-15v-53l1-39 1-12z" fill="#3D5177"/>
<path transform="translate(805,682)" d="m0 0h2l1 3-2 17-4 7-2 6-7 11-4 3-2 7-5 3h-2v2h-2l-1 3h-2v2l-10 8-5 3h-10l-6-2h-5v-3l8-7h2v-2l4-1v-2l6-5 4-6 4-4 3-6 6-5 6-8 8-11 5-6 6-3 1-2h3z" fill="#9EB9D4"/>
<path transform="translate(875,430)" d="m0 0 8 3 10 2 4 5 1 8-2 10-1 1v8l6 2 3 3 7 5v2h2v2h2l6 12 4 1 1-2 2-20 5 1-3 2 1 7v11l-3 12-7 14-9 10-1 2h-3l-11-44-7-21-9-23-5-10z" fill="#2E509F"/>
<path transform="translate(967,476)" d="m0 0 3 1 3 3 4 2 6 8v2h2l1 3 3 3 4 7v2l3 1 4-1 4 4-1 2-5-3 6 14 1 5v11l-3 6-7 10-8 7h-3l-5-33-6-27-6-20z" fill="#1F4A89"/>
<path transform="translate(522,830)" d="m0 0h8l8 3v2l7 2 2 4h2v2l5 2 1 3 4 2 6 7 9 20 3 7-2 1-4-7-2-4-3-1-2-4-13-8-3-3-11-6h-6l-12 6h-2v2h-2v2l-12 5-9 2v-3l2-1 2-16 3-10 1 2 4-1 5-5 6-4z" fill="#596B8A"/>
<path transform="translate(777,648)" d="m0 0h33l6 2-1 4-3 18-4 10h-3v2h-3l-1 3-6 3-5-1-5-4-3-4-2-3-8-4v-18l3-7z" fill="#AFD4E6"/>
<path transform="translate(593,423)" d="m0 0h1l1 12 1 2 10 2 10 6 3 5-1 2h2l4 7 4-10h1l-1 14h-2l-3 18-1 11h-2l-1 4h-7l-9-5-3-10-6-21-1-6z" fill="#9EB9D4"/>
<path transform="translate(900,604)" d="m0 0 1 2v12l3 12-6 2-29 3-14 1h-12v-17l2-2 9-1v-2l26-5 13-4z" fill="#243F7B"/>
<path transform="translate(868,565)" d="m0 0h6l2 5 2 14v16l-1 3 4 1-32 6-7 1-1-9v-23l2-3 15-6z" fill="#4188C4"/>
<path transform="translate(792,407)" d="m0 0h16l27 3 10 2 1 4-1 1-15-1-18-3h-15l2 5 6 11 5 13 3 5 8 24v3l16-7 14-4 11-3h4l-1 5-16 4-26 11 4 15 5 21 4 23v8l5-3 9-7 5-5 8-7 8-9 7-11 4-7 4 1-2 6-9 14-11 14-10 9-12 10-7 1-2-5-5-30-3-11-5-25-11-33-6-15-8-16-3-7z" fill="#79C6E0"/>
<path transform="translate(756,418)" d="m0 0h9v6h2l2 6-2 13v5l-2 6-2 7-2 5-11 8h-2v-2h2l1-3-5-1-7-20-8-19-1-5h7z" fill="#556FB3"/>
<path transform="translate(634,463)" d="m0 0 4 1 8 3 5 5 9 2 7 1v-7l2 3 3 16 3 15 2 7 2 19-1 6-5-5-5-13-7-4-5-8-1-10 1-8-1-4-5 3-3 5-6 8-5-2-3-9-1-6v-10z" fill="#9EB9D4"/>
<path transform="translate(891,471)" d="m0 0 3 3 8 28 6 26v3h3l2-4 9-11 6-13 2-10v-11l-1-7 5-1 1 1v19l-4 15-6 12-13 16-2 5 1 14 2 13 2 19v6l17-5 8-3 19-7 6-3h3l-1 4-4 3-25 10-21 7h-3l1 27 16-2 15-4 8-5 3-6 3 1v7l-6 5-11 5-25 6-2 2-1 5h-2l-1-10 1-1-1-7-2-49-1-5v-10h-2l-2-26-2-7-2-13-3-15-5-16-2-6z" fill="#5E9ECD"/>
<path transform="translate(412,430)" d="m0 0h1v7l7-1h8l12 5 7 7v3h2l1 4v12l-3 10-5 3h-20l-13-3h-6l-4 14-4 28-4 39-2 38v101h2l2 17 2 24 1 9v10h-1l-4-30-1-9-1-1-1-7-1-33-1-14v-48l2-46 1-19 6-48 5-26 2-6 5-1 11 3 11-1 6-3 3-1 1-4h2v-8l-3-6-6-5-6-2-13 1-2-1v-9z" fill="#A6C1D5"/>
<path transform="translate(503,665)" d="m0 0h1l2 9 5 15v3h2l1 9h2l4 13 2 5 2 1v24l-1 5-2-4-2 8-1-3-2-1-3-1v-3l-6-3-3-9-6-6v-23l3-18z" fill="#3870B2"/>
<path transform="translate(524,723)" d="m0 0h1l1 20 3 1 6 16 11 31 4 10 4 18-4-5-5-5-8-3-5-5-5-2v-2l-10-1 1-9 2-12 1-18 2-13z" fill="#9AA7AF"/>
<path transform="translate(725,453)" d="m0 0 4 1 1 8h2v-2l5-1 3 7 2-1 3 12v10l-3 1-3-2-10 7-9 7-5 1-1 3-2-3-3-10v-4h-2l-5-10 11-10 11-8 1-4-8 4-2-1 6-4z" fill="#6A8DBF"/>
<path transform="translate(469,464)" d="m0 0h2v2h2l7 10 3 3 3 6 2 1 2 7h2l6 12 2 3 2 8 7 1 5-3 3-1 4 11 1 8 1 1 1 7v9h-1l-2-13-2 3-3 8-3 2-4-1-5-1-2 2h-3v3h-2l-4-23-4-17-5-15-2-9-7-14-6-8z" fill="#6B8DBF"/>
<path transform="translate(990,178)" d="m0 0h7l1 2-3 3-9 2-16 6-18 8-13 6-58 25-40 18-40 17-20 9-23 10-26 11-11 5-13 5-14 6-11 5-7 3-3-1 14-7 25-11 11-5 14-6 13-6 14-6 11-5 41-18 16-7 36-16 28-12 36-16 21-9 14-7 17-7z" fill="#D1D2D4"/>
<path transform="translate(768,383)" d="m0 0h142l48 1 13 3 6 3-4 1-14-3h-34l-50-2-34-1h-23l-2 2-20 2-13 1h-16l-29 1-9 2-5 2-2 7-1 2 2 7 3 6 4 3h-4l-1 2-9-14v-2h-2l-1-4h-2l-4-6-4-3v-3h-6v-1h33l14-1 11-2 9-1z" fill="#5880B9"/>
<path transform="translate(941,591)" d="m0 0 9 1 2 3-1 17-6 8 1 2-19 5h-12l-1-7v-20z" fill="#204A88"/>
<path transform="translate(827,766)" d="m0 0h3l-5 15-6 4-2 5-5 6-4 6-11 6-7 4h-6l-9-6-3-5-3-3 4-3 14-6 4-2h3v-2l3-3 1-2 5-2 12-5 6-3z" fill="#5882BA"/>
<path transform="translate(609,982)" d="m0 0h2l4 10 5 11 7 20 3 8v4h2l5 16 7 21 6 16 5 12 4 6 8 4v2l-5 1-3 2-1 3h-2v2h-2v-2h-2l-8-19-6-17-7-20-14-46-5-19-3-11z" fill="#FEFEFE"/>
<path transform="translate(707,433)" d="m0 0 1 4-7 6-4 2-4 5 5 2 1-2 5-2 2 1 1-3 4 1 1 7-1 4 4 2-14 11h-2v2l-5 5h-2l-1 3-5 4-5 3-4 3-5-18v-10l15-14 8-6 11-8z" fill="#6B8DBE"/>
<path transform="translate(555,404)" d="m0 0 3 4 4 9 3 10 10 30 3 11v8l3 6 3 15 2 7v5l-4-5-2-1 2 8v12l-2 5-5-1-4-8-6-17-3-5v-2h2l7 13 5 1-5-30-6-21-3-14-7-21-4-9-1-7h4z" fill="#D3DFB9"/>
<path transform="translate(410,436)" d="m0 0h1v6l15-1 9 4 6 7 1 7-1 4h-2l-1 4-7 4-2 1-11 1-11-3h-5l-2 11-2 9h-1l-1-6 4-13 5-17 3-15z" fill="#D8DEE5"/>
<path transform="translate(811,477)" d="m0 0 6 2 3 3h1l6 29-1 7-2 6-7-2v-2l-7-1-6-8-4-2-11-1-2-5h-5l5-4 14-9 7-4 1-4-5 2-3-1 8-4h2z" fill="#5670B3"/>
<path transform="translate(523,445)" d="m0 0 7 6 4 1 7 1 3 4 1 2 4 1 5-5 6-4 1-4 2 2 7 22 6 30v8l-4 1-4-5-4-8v-2l-3-1-7-11-7-10-7-9-17-17z" fill="#9EB9D3"/>
<path transform="translate(925,528)" d="m0 0 8 3v15l-1 13-1 6-2 11-4 4-3 5-4 1-2 5-2-3-3-27-2-16 1-7 8-5 5-1-1-3z" fill="#3365AC"/>
<path transform="translate(735,495)" d="m0 0 2 3v2h2l3 5 2 8 5 1 2-1 2-3 4 25 3 36-1 7-4-4-4-5-6-22-1-13-1-7 1-5-7 2h-6l-5-8v-13z" fill="#86A5CB"/>
<path transform="translate(741,646)" d="m0 0h15l1 2-4 2-2 8-1 14-3 6-5 5-3 4h-2l-1 4-2 1-1 5-4 1v2l-4 2-2 2v-11l1-3v-13l1-2 1-13 4-9 4-2v-2z" fill="#DAE4B9"/>
<path transform="translate(416,820)" d="m0 0 4 1-2 16 1 1 1-7 7 3 8 10 11 7 5-1 7-1 5-2 4-1 1-3h2l2-5 2-4 3-1 2 1v2l3-3 3 1-2 9h-2v2h-2l-2 4-3 3-6 3-5 3-1 4v-2l-6 4-4 1-2 6h-3l-1 2-9-8-5-8-4-4-5-10-2-2-4-1-3-10-1-9z" fill="#3871B3"/>
<path transform="translate(463,599)" d="m0 0 9 3 2 4 4 2 2 4h2l5 7 4 10 7 18 5 22-1 17-1 6h-1v-27l-3-12-7-11-5-5-8-7-4-2h-8l-1 7-2 8-1 10-2-4v-8l-2-12-1-11 1-11 4-7z" fill="#596B8A"/>
<path transform="translate(721,541)" d="m0 0 2 1-3 4v8h2v2l3 1 1 2v6l2 1 1 7v14h-2l-2 2-1-3 1-2h-5v2l-8-2-7-2-3-1v-2h-2l-3-5-4-10 2-5h2l5-5 12-8z" fill="#DAE4B9"/>
<path transform="translate(649,404)" d="m0 0h6l8 7 3 3v5h-3l-5-6-3-2h-7l-2 4-6 15-3 15-4 26v10l2 9 3 9 2 2-1 7-4 3-8-4-3-6h-6l-2 6-2 2 1-7 5-7 1-3 3-24 2-5h2v-9l5-19 4-14 4-10h2l3-6z" fill="#D3DFB9"/>
<path transform="translate(490,529)" d="m0 0 3 2 4 20 1 1 4 29 1 17v42l-2 2-5-12-3-11v-22l-1-2-1-10-3-24-1-27 1-4z" fill="#5A6C8A"/>
<path transform="translate(873,421)" d="m0 0 9 1 9 3 4 4-2 4-16-1 1 2 8 19 6 15v8l4 11-1 7v4l-1 5-5 7h-2l-1-12-2-2 1-4-4-1-5-5v-12l-3-7h2v-2h2l-1-14 3 1 3 6 1 3h2l-6-16-2-7-3-1-3-11v-4z" fill="#3F5DA5"/>
<path transform="translate(618,388)" d="m0 0h11l8 10v2h2l2 5h2l-2 9-4 9h-2l-1 5-3 3-4-2v-2l-4-2-5-9-8-2-2-4 1-12 7-9z" fill="#7999CB"/>
<path transform="translate(787,735)" d="m0 0 1 3-1 4 5 10v2l5-3h5l-4 13-4 7-6 1-6 3h-3v-2l-3-1-7-1h-11v-9l2-6 10-7h2l1-3h2v-2l3-3h2v-2z" fill="#87A6CC"/>
<path transform="translate(831,408)" d="m0 0h11l5 4v5l-1 1h-16l-10-1-1 5 3 1 3 11-1 16-1 2v7l1 5 3 1 2 3 3 2-9 4h-2l-5-16-6-15-8-18-6-11 1-2h15l26 4h7v-3l-10-2-4-1z" fill="#405EA5"/>
<path transform="translate(556,404)" d="m0 0 4 1 1-1h5l3 3v2h3l6 16 3 9 2 7 5 19v16l-3 1-2 4h-2l-1-6h-2l-2-9-4-16-9-26-4-11z" fill="#9EB9D4"/>
<path transform="translate(463,375)" d="m0 0h29l17 1 4 2 2 5 5 2-1 4-13 6-10 5h-5l-2-1 2 14 6 11 2 2-1 3-3-3-3-1-2-3-5-3-1-7 3-8-4-10-7-10-5-6-8-2z" fill="#86A5CC"/>
<path transform="translate(819,579)" d="m0 0h5l-1 5-40 14-3 2 1 5 3 5-1 7 10-1 33-1 1 5-5 1-22 2-24 4-3 1h-7l-1-4 2-10 10 1v-8l-2-3v-4l-10 2-1-5 2-2 13-3h3v-2l15-5 11-2z" fill="#B2BCA0"/>
<path transform="translate(655,484)" d="m0 0 2 2-1 12 2 8 3 4v2l6 2 4 6 4 11 2 2 1-5-1-11v-9h1l1 11h2l-1-3h2v4l20-7 5-2-4 4-17 8-5 2-1 13 1 13-1 2-4-2-6-8-2-6h-2l-3-6-2-3-1-7-4 1-4 5h-3l-5-13v-10l6-11z" fill="#BDD1B3"/>
<path transform="translate(742,528)" d="m0 0h2l1 6 1 13 4 15 1 13 2 4v8l-1-3-8-2-11-11-2-6v-5h-2l-1-6h-2l-1-9-2-5 3-3h3v-2l8-5z" fill="#AEB9A1"/>
<path transform="translate(952,444)" d="m0 0 2 1v2h2l5 13 6 16 2 10 6 21 5 23 4 28v5l5-3h2l2-4 5-5 5-8 1-3v-11l-3-10-3-6v-3l5 2 5 10 1 3v17l-4 8-10 13-7 7 5 4v14l-2 3h-2l-1 41h-1l-1-62h-2l-1 2-2-10-3-21-5-24-7-27-8-26-6-16z" fill="#3762A9"/>
<path transform="translate(524,579)" d="m0 0h1l3 51v30l-3 57h-2l-2-7v-12l1-3v-16l-2-5v-7l-1-10-2-10v-33l1-3 1-9 2-4v-3h2v-14z" fill="#3971B3"/>
<path transform="translate(701,478)" d="m0 0h2l4 7v2h2l4 14-1 6-10 7-16 6h-4l-1-4v-16l6-8 3-3h2l1-4 6-4z" fill="#AFD3E5"/>
<path transform="translate(650,410)" d="m0 0h5l5 4 5 5 1-5 2 4-1 4 3 1 5 6v6h2l2 9-5 5-1 3h-2l-1 6-3-2-6-17-3-12h-2l-5-10v5h2l5 14v7l-2-4-4-2h-8l-2-1-2 4v-7l4-12 2-7z" fill="#7A9ACC"/>
<path transform="translate(707,381)" d="m0 0h32l108 1v1l-79 1-9 3-12 1-6 1-13 1-56-1-23 1-1 3-5 2v4h-2l-3-6-3-2 1-4 10-1 44-1 8-1 9-1z" fill="#6396C6"/>
<path transform="translate(458,670)" d="m0 0h2v15l-1 21-1 43v55l4 1-7 1-4-4-3-11v-26l4-29 2-16 1-19z" fill="#2E509F"/>
<path transform="translate(838,384)" d="m0 0 41 1 50 2h30l10 2-4 1-14-1h-16l-6 2h-8-2-9l-12 1h-56l-12 1-13 2-7 1-5 2h-4v2l-7 1 2-6 5-2 12-2 8-1 7-2z" fill="#3366AD"/>
<path transform="translate(454,564)" d="m0 0 4 4 3 1 1-2h2v2l5 2 6 12 9 23v3h2l2 11h2l3 10-1 3-5-10-2-5-3-4v-2h-2l-4-5-4-4-9-3h-2l-2 5-2-4-1-15-3-17-1-4z" fill="#757D97"/>
<path transform="translate(765,473)" d="m0 0h5l7 10 5 10-1 3-11 7h-3v2l-6 4-1 1h-5l-5-20v-8l8-6z" fill="#77C8E0"/>
<path transform="translate(864,532)" d="m0 0 3 1v2h3l3 22-18 8-5 3-11 3-1-5v-13l9-6 10-9h2l2-4z" fill="#4387C3"/>
<path transform="translate(712,425)" d="m0 0 2 1v2h2v3h5v2h-2l4 5 5 2-1-3 1-4h2l5 11 6 20-1 3-3-6-5-1v2h-2l-2-8-9 2-4 3-5-1 1-9-1-2h-3l-1 2-7 1-1 3-3-1v-2h-2l1-3h2l2-4 5-3 4-3-1-8 1-2h5z" fill="#5882BA"/>
<path transform="translate(520,758)" d="m0 0h1v19l-3 14 1 4 8 2v2l5 1 5 4v2l6 1 7 5 3 5v2h2l2 5 2 9 2 5-1 3-5-10-5-5-1-2h-3l-1-2-20-8h-11l-4 1-2 9-1-4 8-27 1-11 2-8z" fill="#7C8DAB"/>
<path transform="translate(824,483)" d="m0 0 2 2 1 5 4-1 4 4v2l5 2 2 6 3 8 1 1v5l2 1 1 8v3l2 1v7l-7 6-5 4h-3l-4-25-3-14-5-22z" fill="#5C96C6"/>
<path transform="translate(531,851)" d="m0 0h6l14 8v2l5 2 9 6 2 4 5 5 3 4v3l-2 1-24 1h-44v-1l65-2 1-2-16-8-5-4-3-3v-2l-5-2-4-3h-11l-4 2-2 6-1 2-15 3h-15v-3l19-6 3-2h3v-2h2v-2z" fill="#4C5775"/>
<path transform="translate(658,520)" d="m0 0 3 1 2 9 3 4v3h2l6 10 4 5h3l2 9v20h-3l-3-7-3-10-5-1-2-10-8 1-2-3-2-9-1-11-6 2v-5l6-4z" fill="#D3D09B"/>
<path transform="translate(652,379)" d="m0 0h58l131 2v1h-102l-32-1v2l-7 2h-7l-3 1-44 1h-28v-1l16-4 9-2z" fill="#7FB3D7"/>
<path transform="translate(895,479)" d="m0 0h6l5 2v2h2l4 5 2 5h2l2 6v6l-2 6v2l6-1 1-2h2l-2 6-9 11-3 4h-3l-11-44z" fill="#3467AD"/>
<path transform="translate(521,486)" d="m0 0 7 1 1 3 4 2 7 7 9 11 11 14 2 2 1-4h-2l-5-13-7-15 1-3 8 16 5 12 4 9v6l-4-1-4-5-7-10-9-11-7-2-1-5-7-1 1 4 5 5 2 4h2l3 7-1 4h-2v7l-3-3-3-4h-4l2 14v17h-1l-3-21-2-23-1-5-2-12z" fill="#BDD2B4"/>
<path transform="translate(453,373)" d="m0 0 54 1 20 2 18-1-3 5-6 3-4 4-11 6-16 7-6 4-7 1 2 8 8 16 3 9 3 14-1 4-2-10-2-4-2-9-4-8-5-8-3-9-1-9h3l7-1 14-7 7-3v-3l-5-2v-4l-5-2-19-1h-21l-19-1z" fill="#9FBAD3"/>
<path transform="translate(874,610)" d="m0 0 3 1-1 4h2v14l-3 3-15 1-16 1-1 2v-17l2-2 9-1v-2z" fill="#407FB0"/>
<path transform="translate(545,375)" d="m0 0 7 1 2 1v2h-2v2l-10 6h-3v2l-16 6-2 2-13 5-5 3h-2l-1 3-4 4 3 8 6-2 5 1 10-1 15-5 8-4 5-1 1 2-6 4-5 5-22 7-7 1v-2l-4 2v7l-3-3-8-15-2-5v-6l9-3 8-5 18-8 12-9 4-2z" fill="#B0D5E6"/>
<path transform="translate(896,490)" d="m0 0h1l4 16 2 10 2 16 1 1 1 8v9h-1l-1-6-4-1-2 5-1-2 1-3-3-1v-3l-5-3-6-9 1-12h2l-1-4 7-9-1-8h2z" fill="#3567AD"/>
<path transform="translate(718,508)" d="m0 0 1 2 1 8 3 14-6 5-4 4-10 6-6 2-6 3-4-1-1-3 8-7h2l2-6 6-11 9-12h2v-2z" fill="#BED3B4"/>
<path transform="translate(866,765)" d="m0 0 3 1-6 5-5 5-3 1v2l-4 1-2 6-8 4-7 3-14 4-10 4-2-1 3-4 6-7 1-4 5-4 3-2 9-2 9-3 13-5z" fill="#3F80B2"/>
<path transform="translate(634,377)" d="m0 0h29l36 1v1l-63 1-12 2-24 6-8 4-10 4-9 5h-2l3 9 2 4v3h-2l-2-8h-3l-3-4h-5-3l-3-1 1-4 2-1h8l4-4 6-3 9-6 15-6 8-2z" fill="#B0D5E7"/>
<path transform="translate(412,430)" d="m0 0h1v7l7-1h8l12 5 7 7v3h2l1 4v12l-3 10-5 3h-20l-13-3h-7l1-5 4-1 8 2h17l6-3 4-5 2-5-1-7-4-6-4-3-9-2-13 1-2-1v-9z" fill="#9EB9D4"/>
<path transform="translate(602,465)" d="m0 0 13 2 7 2 1 2v10l-1 11h-2l-1 4h-7l-9-5-3-10-1-3v-10z" fill="#B0D5E6"/>
<path transform="translate(967,479)" d="m0 0 2 2v3h3v2h2l1 4 3 1 10 19 1 3v17l-2 12-2 4-1 12h-1l-4-28-6-27-6-20z" fill="#2E509F"/>
<path transform="translate(803,590)" d="m0 0h3l1 10v16l-5 1h-19v-7l-4-7 1-4 9-4z" fill="#9AA7B0"/>
<path transform="translate(688,389)" d="m0 0h9l6 1 1 3 6 5-1 2-4-4-7 1 1 12 5 9v7l-2 6-9 3-2-7-4-10 1-7-2-4 2-14z" fill="#5882BA"/>
<path transform="translate(963,582)" d="m0 0h5l-4 5-7 2-2 12h2l5 9 3 9-3 11-3 5h-2v2h-5l-4-5-2-1-10 1 1-2h2v-2l11-4 8-5 1-1v-7l-2-1-2 6-5 4-2 1h-6l5-4 3-5 1-17-1-2-6-1v-2z" fill="#223661"/>
<path transform="translate(569,517)" d="m0 0h2l5 10 1 5h2l1 2 6-1 5 5 5 2 5 5v3h2l1 7-4 5-6-3-2 1v2l-6-2-2-6-4-2-3-6v-2h-2l-2-9-4-12z" fill="#D3D09A"/>
<path transform="translate(900,542)" d="m0 0 3 1-1 6-12 7-5 7-2 7 2 5 3 15 6 7 3 2-11 4h-9v-19l-3-19-4 1v-2l19-11 7-5 3-1z" fill="#1F528D"/>
<path transform="translate(512,465)" d="m0 0 2 1 4 14 3 7 3 19 2 16 3 27v55l-2-3-3-41-1-20-1-7-1-1-2-21-3-18-1-1-1-11-2-8z" fill="#CBD7E1"/>
<path transform="translate(586,428)" d="m0 0h1l1 27 3 8 2 13 2 34v14l-3-2-1-10h-2l-1 4-6-22-2-12-3-6 1-4v3h2l1 6h2l2-5h2v-16l-2-9v-18z" fill="#B0C6D4"/>
<path transform="translate(932,594)" d="m0 0 2 1-4 2h5l1 5 1 6-3 6h-2l-2 7-3-1v2h-2l-1 3h-8l-1 2-1-7v-20z" fill="#24558C"/>
<path transform="translate(729,574)" d="m0 0h1l2 13 18-2-3 3-8 3-1 2h2l1 6 4 1h6l1 4-4 3 2 1 1 4 2 4 1 7 1 1-1 10-3-4h2l1-5h-6l-5-4-1-4 3-9-10 1 2-5 2-1-4-8-5-1-3-2h-10l-4-4-6-4v-1h7l6 3v-2h5v3l3-1z" fill="#D3D09B"/>
<path transform="translate(547,410)" d="m0 0 4 1 1 4-4 8-8 4h-2v2l-13 5-3 2-15-1-2-1-1-7 2-2h3v2l23-7 7-3 3-1 1-3z" fill="#9EB9D4"/>
<path transform="translate(594,343)" d="m0 0 2 3-6 4-16 7-17 9-10 5-9 3h-11l-4-1 1-4 18-5 15-7 20-8 14-5z" fill="#FEFEFE"/>
<path transform="translate(772,659)" d="m0 0h1l-1 15-2 4-4 4-2 4h-2l-2 5-4 6-4-1v-6l-2-4 1-10 3-3h2l1-4h2v-6l7-2z" fill="#D0D2D3"/>
<path transform="translate(680,461)" d="m0 0 9 3 8 6-1 6-4 2-1 3-5 4-5 3-4 3-5-18v-10l5-1z" fill="#77C8E0"/>
<path transform="translate(551,410)" d="m0 0 4 5 8 22 4 13 1 12h2l10 40 2 9v12l-2 5-5-1-4-8-6-17-3-5v-2h2l7 13 5 1-5-30-6-21-3-14-7-21-4-9z" fill="#BDD2B4"/>
<path transform="translate(632,462)" d="m0 0h1v19l2 9 3 9 2 2-1 7-4 3-8-4-3-6h-6l-2 6-2 2 1-7 5-7 1-3 3-24 2-5 1 4-1 5v8l2 5h4l-2-6 1-10z" fill="#BCD1B3"/>
<path transform="translate(566,408)" d="m0 0 1 2 4 2 5 11 3 10v12h-2l-1 13-2-1-14-42v-4z" fill="#87A6CB"/>
<path transform="translate(527,702)" d="m0 0h1l1 19 6 25 8 25 5 17v3h2l2 10v5h-2l-4-13-9-25-8-22v-2l-4-1v-25z" fill="#EBEBEC"/>
<path transform="translate(808,621)" d="m0 0h6l-4 2-5 3 1 5v7l11 1v1h-32l-8-1 1-2h3l-2-6 1-4 17-3 7-2z" fill="#AEB9A0"/>
<path transform="translate(790,770)" d="m0 0h5l3 6 4 1v3h-4l-2 5h-2v2l-18 8-5-1 1-8h2l1-4 2-1 3-6z" fill="#6A8DBF"/>
<path transform="translate(1e3 179)" d="m0 0h10l9 3 7 2 8 4 6 4v2l5 2 9 11 4 8 1 5-4-1-3-4v-2h-2l-2-4-11-9-7-6-6-3v-2l-6-1-17-6z" fill="#D1D2D4"/>
<path transform="translate(722,455)" d="m0 0h3l-1 5-13 10-10 9-4 5-4 2-1 3-7 6-3 5-1 15-2-4-1-11-1-2v-6l8-7 6-5 6-7h2v-2l19-14z" fill="#D1DEB9"/>
<path transform="translate(936,531)" d="m0 0 2 2 1 8h2l3 10 2 14v12l-3 6v3l-10 3-4 2-4-1 5-3h2l1-5 3-2 2-10-3-25 1-5z" fill="#2E509F"/>
<path transform="translate(623,884)" d="m0 0h15v1l-14 1-1 1-46 1-10 3-4-1h-47l-35 1h-29l-1-3h15l83-2 71-1z" fill="#8A97A6"/>
<path transform="translate(769,468)" d="m0 0 2 1-2 3h6l8-2h9l1 5-2 9 1 2 9-2-3 3-16 8-7-14-5-7-7 1h-3z" fill="#5772B3"/>
<path transform="translate(410,436)" d="m0 0h1v6l15-1 9 4 6 7 1 7-1 4h-2l-1 4-7 4-2 1-11 1-11-3h-4l2-5 20 2 9-3 2-3v-7l-4-4-7-2-15-1z" fill="#B0D5E7"/>
<path transform="translate(895,543)" d="m0 0h4l-1 5-16 10-16 9-12 6-11 4-4 1-1-4 5-5 11-4 8-4 15-7 16-9z" fill="#D2DCB4"/>
<path transform="translate(883,497)" d="m0 0 4 1v6l-5 12-7 9-1 4-2 6 1 3 2-1 2 4 5 2h13l-4 4-15 9h-4l-2-13v-8l-5-1 1-5 11-14 8-14v-2z" fill="#24558D"/>
<path transform="translate(707,381)" d="m0 0h9l3 3-2 4-1 1h-44l-23 1-1 3-5 2v4h-2l-3-6-3-2 1-4 10-1 44-1 8-1 9-1z" fill="#7899CC"/>
<path transform="translate(882,498)" d="m0 0 4 1-2 6-9 14-11 14-10 9-12 10-7 1 2-6 12-9 5-5 10-9 7-8 7-11z" fill="#D8D99A"/>
<path transform="translate(817,559)" d="m0 0h5l-1 4-16 8-7 3-9 2-18 6-8 1v-5l5-2h3v-2l18-6 8-2 15-5z" fill="#D8DA9B"/>
<path transform="translate(824,638)" d="m0 0 5 1v5l-3 1-24 1h-36v-6l6-1h45z" fill="#F7EC7A"/>
<path transform="translate(837,475)" d="m0 0h6l5 6 6 11 5 10 7 21-7 7-1-3 1-8v-9l-5-6-1-3-2-1v-4h-2l-5-6-3-2v-3h-7v-2l-7-1-3 1 1-3z" fill="#3D7CB2"/>
<path transform="translate(806,482)" d="m0 0h3l-1 5-12 7-17 11-14 9-6 2-4 2v-5l10-8h2v-2l8-4 10-6 15-8z" fill="#D3DEB9"/>
<path transform="translate(827,495)" d="m0 0 5 4 3 9h2v3l3 1 1 6 1 3h2v12l-3 7-3 5-2 2-4-25-3-14-2-8z" fill="#61A5D2"/>
<path transform="translate(650,410)" d="m0 0h5l5 4 4 6-8 1 1 6-2-3-4-7v5h2l5 14v7l-2-4-4-2h-8l-2-1-2 4v-7l4-12 2-7z" fill="#7B9BCC"/>
<path transform="translate(765,473)" d="m0 0h5l7 10 5 10-1 3-6 4-5-1-2-3-2-10-6-1v-3h-9l4-4z" fill="#63A5D1"/>
<path transform="translate(539,874)" d="m0 0 7 1 10 4 6 2 2 3-1 1-18 1h-24l-4-2 4-4 16-5z" fill="#314073"/>
<path transform="translate(697,389)" d="m0 0h41v2l-9 2-5 2-2 7-1 2 2 7 3 6 4 3h-4l-1 2-9-14v-2h-2l-1-4h-2l-4-6-4-3v-3h-6z" fill="#5982BA"/>
<path transform="translate(524,723)" d="m0 0h1l1 20 3 1 6 16 11 31 4 10-1 4-10-26-4-6v-3h-2l-1-2h-7v2l-3 1v-13z" fill="#BED1B9"/>
<path transform="translate(822,620)" d="m0 0h5l-2 8v6l2 4-3 1h-20l2-1-2-13 6-3z" fill="#5A6B8A"/>
<path transform="translate(900,604)" d="m0 0 1 2v12l3 12h-15l-3-5-1-3v-9h2v-2l5-2 1-4z" fill="#20538D"/>
<path transform="translate(896,551)" d="m0 0h2v2h-2l-1 7-2 4v11l2 12v3l2 6 2 2-2 1-5-3-5-6-3-15-2-6 4-9 4-5z" fill="#2E509F"/>
<path transform="translate(934,873)" d="m0 0h29v1l-32 2-75 2-8 1-27 1h-43v-1l5-1 40-1 42-2z" fill="#8C98A3"/>
<path transform="translate(798,573)" d="m0 0h4l3 9 3 2-18 4-8 3h-9l-1-3 2-5 10-5 11-3h3z" fill="#77C7E0"/>
<path transform="translate(618,887)" d="m0 0h5l-4 2-7 3-5 4h-2v2l-10 6h-5l-4-7-1-6-2-1v-2z" fill="#E9E9E9"/>
<path transform="translate(717,467)" d="m0 0h8v3l-2 5 2 2h3l2 4-1 2 1 4-5 1h-9l-1-5-5 1-6-3v-4h6v-4l3-1z" fill="#5D98C8"/>
<path transform="translate(657,491)" d="m0 0 3 3v5l4 2 4 4v2l3 1 4 4v-8h1l3 24-1 6-5-5-5-13-7-4-5-8-1-10z" fill="#ADC5D4"/>
<path transform="translate(898,631)" d="m0 0h5l-1 5-26 4-26 2h-6l-1-6 48-4z" fill="#D7D898"/>
<path transform="translate(930,474)" d="m0 0 5 1v19l-4 15-6 12-13 16-4 2-1-5 9-10 7-10 5-11 2-10v-11l-1-7z" fill="#CFD8B5"/>
<path transform="translate(796,525)" d="m0 0 7 2 6 4 3 14 3 2 3 6 2 5h-3v-3l-12-3v-2h-2l-3-3-4-15z" fill="#3F80B2"/>
<path transform="translate(501,650)" d="m0 0 3 1 4 10 5 17 1 10h2l7 25v4h2l1-4-1 10-1-3-3-1-5-13v-5h-2l-1-9h-2l-6-18-2-9-2-11z" fill="#73ACD5"/>
<path transform="translate(604,491)" d="m0 0 8 4 7 1 2-4-1 5-4 5-5 16-4 6h-2l-3-12-1-8 2-10z" fill="#D8DEE5"/>
<path transform="translate(819,579)" d="m0 0h5l-1 5-9 3-9 2-33 11-4 2-4-1 1-5 7-2 10-2v-2l15-5 11-2z" fill="#DEDD97"/>
<path transform="translate(893,600)" d="m0 0h5v4l-18 6-21 4-12 2h-6v-5l33-7 16-3z" fill="#DAE0AC"/>
<path transform="translate(751,587)" d="m0 0 2 1 3 21-1 5 2 20 3 7v5l-5-1-1-15v-6l-1-1-2-10-2-3 1-2-3-1 4-3v-3h-8l-3-2v-6h-2l1-3z" fill="#BCC4A0"/>
<path transform="translate(856,877)" d="m0 0h38v1l-40 2-30 1-48 1-30 1-18 1-10-1-23-1v-1l32-1 94-1 27-1z" fill="#BDC3C4"/>
<path transform="translate(797,751)" d="m0 0h5l-4 13-4 7-6 1-6 3h-3v-2l-3-1-2-1 1-3h2v-2l5-4 3-3h2l2-4 3-2z" fill="#7898CB"/>
<path transform="translate(998,510)" d="m0 0 5 2 5 10 1 3v17l-4 8-10 13-8 6h-3v-5l5-4h2l2-4 5-5 5-8 1-3v-11l-3-10-3-6z" fill="#BEC29E"/>
<path transform="translate(543,466)" d="m0 0 3 1 9 11 7 11 6 2 1-5v-15h1l6 30v8l-4 1-4-5-4-8v-2l-3-1-7-11-7-10z" fill="#ADC5D4"/>
<path transform="translate(786,444)" d="m0 0h7l2 3v6l-2 1v-5l-5 2-14 8-10 7-13 9-2-1 10-8h2l1-5 3-8 10-4h2v-2z" fill="#415FA4"/>
<path transform="translate(503,665)" d="m0 0h1l2 9 5 15v3h2l1 9h2l4 13 2 5 2 1v24h-1v-20l-3-1-7-15v-2l-3-1-4-14h-3l-2 4v-9z" fill="#5A83BA"/>
<path transform="translate(818,564)" d="m0 0 5 1 1 12-8 4-6 2h-5l-4-10 4-3z" fill="#3E7EB1"/>
<path transform="translate(742,528)" d="m0 0h2l1 6 1 13 4 15v11l-3-4-3-12-5-8v-3l-4-2-4-3v-2l-2-1 7-6 1-2z" fill="#9AA7AF"/>
<path transform="translate(718,508)" d="m0 0 1 2 1 8 3 14-6 5-8 4-4-1 2-4 1-11 3-3 3-7 3-6z" fill="#AFD3E5"/>
<path transform="translate(509,443)" d="m0 0h2l6 7 8 6 4 5v2l3 1 9 13-1 2-9-10-5-2-7 2-4-6-6-16z" fill="#77C9E1"/>
<path transform="translate(387,611)" d="m0 0h1l1 65v21h2l2 17 2 24 1 9v10h-1l-4-30-1-9-1-1-1-7-1-33-1-14v-48z" fill="#9FB8D2"/>
<path transform="translate(791,448)" d="m0 0 3 1-1 5-24 15-15 11-2-1 1-4-2-1 14-10 16-10z" fill="#D1DCB5"/>
<path transform="translate(943,591)" d="m0 0 7 1 2 3-1 17-6 8 1 2-19 5h-11v-2l16-3 6-4 4-5 4-10-1-8h-7l1-2z" fill="#243F7B"/>
<path transform="translate(820,584)" d="m0 0 3 1-4 2v4h-2v2l-2 1-3 9-1 2 4 4 10 4v2l-5 1h-13l-1-16v-11z" fill="#5A6C8A"/>
<path transform="translate(810,485)" d="m0 0 3 1 1 3-3 3-1 3h-3l-2 4-6 3-2 5h-2l-1 2-6-2-1-4h-5l5-4 14-9z" fill="#3C70AF"/>
<path transform="translate(940,646)" d="m0 0h16l7 1v4l-3 2 2 10h-2l-1 12-2-1-1 6h-1l-1-15-8-14-2-3z" fill="#3F80B2"/>
<path transform="translate(868,565)" d="m0 0h6l2 5 2 14v16l-1 3 4 1-21 4-4-1 9-4 3-5 5-5-1-19-1-5-9 2-4-1z" fill="#4680AF"/>
<path transform="translate(734,494)" d="m0 0v3l-7 6v13l2 3v3l8 1 5-1-5 4-12 7-3-1-3-14-1-8 4-5h2l2-4z" fill="#808FAA"/>
<path transform="translate(735,495)" d="m0 0 2 3v2h2l3 5 2 8 5 1h3v7l-3 2-4-2-6-2-1-4-5-1-3-7-4-2 2-4z" fill="#62A6D3"/>
<path transform="translate(524,579)" d="m0 0h1v9l-1 10v12l-2 4-1 12-1 5v8l1 6 1 10 2 13-1 11-2-3-1-7-1-12-2-10v-33l1-3 1-9 2-4v-3h2v-14z" fill="#3E7FB2"/>
<path transform="translate(820,615)" d="m0 0h6l1 5-5 1-22 2-24 4-3 1h-7l-1-4 1-2h9l26-4 16-2z" fill="#E0DF98"/>
<path transform="translate(965,576)" d="m0 0h3l-1 4-4 3-25 10-18 6h-6l1-4 7-3 10-3 8-3 19-7z" fill="#CFD8B3"/>
<path transform="translate(596,410)" d="m0 0 5 1-1 5-5 5-1 2v31l5 21 5 15-1 12-2 2-3-19-6-22v-41l-4 1-1 2 1-7 6-7z" fill="#BDD2B4"/>
<path transform="translate(767,408)" d="m0 0h8l-1 4-18 5-23 7h-4l-1 2v-2h-2v-4l12-4 8-3z" fill="#CED9B9"/>
<path transform="translate(960,610)" d="m0 0 3 1 2 10-4 11-2 3h-2v2h-5l-4-5-2-1-10 1 1-2h2v-2l11-4 8-5 1-1z" fill="#20345F"/>
<path transform="translate(792,407)" d="m0 0h16l27 3 10 2 1 4-1 1-15-1-18-3-17-1-3-3z" fill="#C3C69E"/>
<path transform="translate(912,540)" d="m0 0 7 1v2h3l1 7-1 8-1 3-7 2-1 6h-1l-3-24 1-4z" fill="#3872B3"/>
<path transform="translate(503,690)" d="m0 0 4 1 4 14 3 3 7 15 2 2-5 1-3-3-5-3-3-6-2-2-2-12-2-5z" fill="#3F80B2"/>
<path transform="translate(744,468)" d="m0 0 2 1 2 6h5l-1 6-1 1v8l4 17v3l4 1-3 2v4l4-3 4 1-6 4 1 13 3 13-1 5h-2l-4-21-5-31-4-17-1-6z" fill="#B0D4E4"/>
<path transform="translate(935,388)" d="m0 0h19l26 3 3 3-9-1-2-1h-23l-22 2-4 1v2h-5l-4-3h-16v-2l2-1 14-1h5l2-1v2l6-1 7-1z" fill="#4360A6"/>
<path transform="translate(957,610)" d="m0 0 3 1v7l-6 5-11 5-21 5h-6l-1-4 16-4 15-4 8-5z" fill="#D4DDB2"/>
<path transform="translate(835,553)" d="m0 0h3l2 20-1 4 3 2v23l1 8-2 6 2 1-1 2-1 15h-1l-1-10-1-23-2-17z" fill="#78C7E0"/>
<path transform="translate(889,637)" d="m0 0h7v1l-8 2-9 1 6 2 2 1 26 3v1h-12l-21-2-36-1-1-3 19-2 22-2z" fill="#4E78A5"/>
<path transform="translate(702,432)" d="m0 0h5l-1 4-12 9-10 8-9 8-4 1v-6l10-9 5-3 3-3 5-2v-2z" fill="#D2DDB8"/>
<path transform="translate(862,460)" d="m0 0h4l-1 5-16 4-26 11h-2v-5l6-4 10-4 14-4z" fill="#D1DBBB"/>
<path transform="translate(995,514)" d="m0 0 3 1v2h3l3 7 1 5v11l-3 6-4 6h-3l-1-3 3-7v-17l-2-7z" fill="#223D77"/>
<path transform="translate(603,376)" d="m0 0h78l31 1 13 1 53 1v1h-68l-11-1-36-1h-62z" fill="#DAE1E7"/>
<path transform="translate(792,574)" d="m0 0h6l-3 2-11 3-10 5-1 6 9 1-3 2-13 3h-4l-1-16 1-4h6l-4 2-1 5 24-7z" fill="#BDCFB0"/>
<path transform="translate(781,503)" d="m0 0h6l5 10 7 26 2 12 1 13 2 1-7 2h-6l2-6h2l1-4 2-5-1-7-6-25-2-5-3-11-7 3-6 4h-2v-2z" fill="#63A5D1"/>
<path transform="translate(446,375)" d="m0 0h17l6 2-2 1-1 3h-7l-16 6-5 4-4 3-2-2 1-3 8-7z" fill="#6D8EBE"/>
<path transform="translate(792,409)" d="m0 0 5 4 2 5 6 11 5 13 3 5 8 24-1 9-2-4-9-27-6-15-8-16z" fill="#6BB3D7"/>
<path transform="translate(909,569)" d="m0 0h1l1 5 2 49 1 8h-2l1 10h2l1-3v5l-4 4-2-9-3-6v-7l2-6v-8l-1-6-1-7 2-4z" fill="#3974B4"/>
<path transform="translate(817,591)" d="m0 0 4 1 3 5v15l5 2 1 4h-2l-1 3-2-8-5-1-8-4-2-3 1-3 2-3 2-6h2z" fill="#5883BA"/>
<path transform="translate(661,1133)" d="m0 0 4 2 10 7 9 4 6 3 5 1v1l-12 1-12-2-4-4-7-8-2-1v-3z" fill="#FCFCFC"/>
<path transform="translate(487,859)" d="m0 0v3l-2 4h-2l-2 4-9 9-1 3-7 6h-16l-5-3-7-8-4-4v-2l5 2 9 7 6 3 1 1h9l4-3h3l2-4 7-9 6-5z" fill="#3F5CA4"/>
<path transform="translate(727,424)" d="m0 0h3l8 19 7 19 1 6h6l-2 4h-2l2 4-3-1-2-6 1 6 1 4-2 2-4-16-3-9-6-17-5-11z" fill="#75BFDD"/>
<path transform="translate(767,406)" d="m0 0h9l1 6-5 3-23 6-12 4-4-1 3-2 22-7 16-4 1-3-18 3-18 5-8 3-5-1v-2l9-1 11-4 3-2z" fill="#65738F"/>
<path transform="translate(800,622)" d="m0 0 4 1-7 2-17 2 1 10-3 1 7 1v1h-17l-2-12 14-3z" fill="#BEC59E"/>
<path transform="translate(1050,530)" d="m0 0 2 4 5 37 2 26v59h-1l-1-43-3-43-4-32z" fill="#85A3C8"/>
<path transform="translate(916,601)" d="m0 0 4 1 1-1h5v11l1 4-4 2-7-1v10h-1l-1-7v-18z" fill="#2661A7"/>
<path transform="translate(752,510)" d="m0 0h1l4 25 1 20h-1l-2-15-4-1-6-10v-9l5 2 1-1z" fill="#7BB4D9"/>
<path transform="translate(873,421)" d="m0 0 9 1 9 3 4 4-2 4-16-1-5-4-1-6z" fill="#46557B"/>
<path transform="translate(874,610)" d="m0 0 3 1-1 4h2v14l-3 3-15 1 3-2 6-3v-11l-4-4h4v-2z" fill="#3566AB"/>
<path transform="translate(922,632)" d="m0 0h5l-4 2 1 1h7v2l4 1 4 4 4 2h-25l-3-6v-4z" fill="#24538B"/>
<path transform="translate(522,749)" d="m0 0h1v21h2v-2l7-1 1 3h2l7 14-1 2-2-1v-3l-3-1v-2l-5-2h-7l-4 1v-11z" fill="#AEB9A1"/>
<path transform="translate(803,590)" d="m0 0h3l1 10v16l-6 1-4-1 2-4 1-5-1-4 1-3-2-6-4-1z" fill="#7F8EAA"/>
<path transform="translate(529,642)" d="m0 0h1l1 11v69l1 6-2 1-2-8-1-11h-1v-10l1-8z" fill="#CFDCBE"/>
<path transform="translate(853,383)" d="m0 0h57l48 1 13 3 6 3-4 1-4-1v-2l-7-1-49-1-5-1-55-1z" fill="#9AB6D3"/>
<path transform="translate(836,623)" d="m0 0 2 4-1 3v16l-2 1h-21l-1-2 16-1-2-16 5 4 2-6z" fill="#5C96C7"/>
<path transform="translate(532,732)" d="m0 0 2 2 3 7 5 5 1 2 1 18 5 21-1 4-13-43-3-11z" fill="#C1D3B8"/>
<path transform="translate(737,605)" d="m0 0 1 2 8-2 3 1-1 1 2 1 1 4 2 4 1 7 1 1-1 10-3-4h2l1-5h-6l-5-4-1-4 3-9-10 1z" fill="#D3D09B"/>
<path transform="translate(668,459)" d="m0 0 2 1 1 9 4 17 4 14 1 12 1 7h-2l-2-10h-1l-4-15-3-19-2-7v-8z" fill="#D1DCE5"/>
<path transform="translate(701,478)" d="m0 0h2l4 7 1 10-12-2-7-1 1-3h2l1-4 6-4z" fill="#79C7E0"/>
<path transform="translate(831,408)" d="m0 0h11l5 4v5l-1 1h-16l-7-1-19-1-7 1-1-4 1-1h15l26 4h7v-3l-10-2-4-1z" fill="#5A6784"/>
<path transform="translate(800,547)" d="m0 0 3 1v2h2v2l9 1 3 2v3l3 1-13 5h-5l-1-2z" fill="#5882B9"/>
<path transform="translate(432,443)" d="m0 0 5 1 6 7 2 5-1 6-3 6-4 4-5 2h-17l-10-2h-2l-2 7-1-3 2-6 5-1 11 3 11-1 6-3 3-1 1-4h2v-8l-3-6-6-5z" fill="#ACC5D4"/>
<path transform="translate(757,541)" d="m0 0h1l1 9h2v-5l2 3 1 5 1 22h6v1h-9l-1 4-2-9-2-22z" fill="#AAC3D3"/>
<path transform="translate(988,642)" d="m0 0 1 2h13l36 1 19 1v3h-21l-2 1h-9l-3-1-16-2-18-1z" fill="#2B52A0"/>
<path transform="translate(923,510)" d="m0 0h2l-2 6-9 11-3 4h-3l-1-3v-7l2-4 5-5 2-1v2l6-1z" fill="#3865A7"/>
<path transform="translate(722,455)" d="m0 0h3l-1 5-13 10-8 7-4-1v-2l-2-1h2v-2l19-14z" fill="#D2DCB2"/>
<path transform="translate(491,618)" d="m0 0 2 3 4 13v2h2l2 5 2-1v11l-1 3 1 4v11h-1l-5-22-4-10-2-9-1-6z" fill="#7A87A2"/>
<path transform="translate(940,541)" d="m0 0 2 2 4 20v14l-3 6v3l-10 3-4 2-4-1 5-3h2l1-3 5-2 1-3h2l2-7-1-15-2-10z" fill="#214B88"/>
<path transform="translate(986,570)" d="m0 0 6 3 1 5v10l-2 3h-2l-1 41h-1z" fill="#2D509F"/>
<path transform="translate(898,550)" d="m0 0h2l-1 7-2 4-1 9 1 13 2 5 1 2v8l-4-2v-2l-2-2-1-4 1-2-2-12v-12l3-4 1-5h2z" fill="#215CA4"/>
<path transform="translate(405,746)" d="m0 0 6 1 1 2-2 1v6l-3 3-2 9h-4v-5l-2-1v-2h2l-3-4 1-6h2l1 2h2z" fill="#3F7FB2"/>
<path transform="translate(489,711)" d="m0 0h5l1 2-1 16-3 8h-2l-2-14v-8z" fill="#1A2F5C"/>
<path transform="translate(988,631)" d="m0 0 2 2 1 3 2 1v2l10 3 43 2v1l-8 1-36-1-13-1-1-2z" fill="#1E4D8B"/>
<path transform="translate(913,582)" d="m0 0h1l2 13-2 4 3 1h-3l1 27h7v1l-7 1 1 3 2 2-2 2-1 5h-2l-1-10 1-1-1-7-1-35h1z" fill="#5C8EBF"/>
<path transform="translate(869,605)" d="m0 0h5l-4 2-5 2v2l9-1v1l-15 3-12 2h-6v-5z" fill="#CED09A"/>
<path transform="translate(540,396)" d="m0 0 8 1 5 4 2 4-1 2-5 1-1-3h-10l-3-1v-5z" fill="#E8E8E9"/>
<path transform="translate(513,888)" d="m0 0h60l-4 2-5 1-1-1h-47l-35 1h-29l-1-2h20z" fill="#ABBAC0"/>
<path transform="translate(824,638)" d="m0 0 5 1v5l-3 1h-22l4-1v-2l-35-1v-1l44-1z" fill="#DDDB94"/>
<path transform="translate(807,623)" d="m0 0 3 1h-2l3 4 3 2-1 7 8-2 1-5h2l3 8-3 1h-20l2-1-2-13z" fill="#767F99"/>
<path transform="translate(706,482)" d="m0 0 9 1 1 2v8l2 4 6-3 2 1-6 5-5 1-1 3-2-3-3-10v-4h-2z" fill="#7C9BCB"/>
<path transform="translate(894,434)" d="m0 0 6 2 1 7-3 19v4h2v2l5 2 4 2v2h2l2 5h-2v-2l-4-2-6-4v-2l-6-2-1-2v-6l2-6 1-6-2-9-2-3z" fill="#1E4A8A"/>
<path transform="translate(1079,932)" d="m0 0 3 1-9 6-6 3-4 4-20 11-10 6h-5l3-3 9-4 4-4 12-6 5-2 1-3 6-1 1-3 7-3z" fill="#D4D7D5"/>
<path transform="translate(729,574)" d="m0 0h1l2 13h6l-3 2-13 3h-5l-4-4-6-4v-1h7l6 3v-2h5v3l3-1z" fill="#D3D09B"/>
<path transform="translate(798,573)" d="m0 0h4l3 9 3 2-11 2h-6l-1-2v-5l5-4h3z" fill="#66A4CD"/>
<path transform="translate(726,505)" d="m0 0 5 2 2 4v3l5 1 2 6h-2l-1 3h-6l-5-8z" fill="#7B9ACB"/>
<path transform="translate(737,441)" d="m0 0h3l3 11 2 6h2v2l3 1 2 2 8 1 1 2-11 8h-2v-2h2l1-3-5-1-7-20z" fill="#5883BB"/>
<path transform="translate(731,490)" d="m0 0h4l-1 5-9 8-5 5h-5l-1-3 1-4 8-4z" fill="#CEDCB9"/>
<path transform="translate(815,876)" d="m0 0h29v1l-21 1-40 1-5 1h-33v-1l31-2z" fill="#525E7E"/>
<path transform="translate(745,588)" d="m0 0 4 1-1 1 4 4 1 7h-10l-3-2v-6h-2l1-3z" fill="#BCC49E"/>
<path transform="translate(896,637)" d="m0 0h8v6l-4 2-15-1-1-1-8-1 3-2 12-2z" fill="#1F4C89"/>
<path transform="translate(835,451)" d="m0 0 3 1 3 10 4 1 11-3h6l-4 2-13 4-12 3-1-6z" fill="#3B4B78"/>
<path transform="translate(882,498)" d="m0 0 4 1-2 6-9 14-5 6-2-2 1-5 8-11 4-8z" fill="#D3DCB7"/>
<path transform="translate(806,596)" d="m0 0 2 2v6l3 1 4 4 10 4v2l-5 1h-13z" fill="#64728F"/>
<path transform="translate(629,387)" d="m0 0h7v4l5 5v3l5 1 2 3h7v1l-9 1-2 4-2 2 1-6h-2l-2-5h-2l-8-11z" fill="#88AACE"/>
<path transform="translate(487,401)" d="m0 0h2l2 12 6 11 2 2-1 3-3-3-3-1-2-3-5-3-1-7 3-8z" fill="#87A6CC"/>
<path transform="translate(524,1091)" d="m0 0 15 6 12 4 4 2 7 2 9 4 8 3 4 1v2l2 1-5-1-25-9-31-12-3-2z" fill="#FEFEFE"/>
<path transform="translate(928,514)" d="m0 0 1 3 4 1 3 6 1 6-2 1v-4l-10-1-4 2-6 8-2-1 8-10z" fill="#2D509E"/>
<path transform="translate(952,444)" d="m0 0 2 1v2h2l5 13 6 16v3h-2v5l-2-4-6-20-5-12z" fill="#3857A2"/>
<path transform="translate(596,410)" d="m0 0 5 1-1 5-5 5-1 2-1 22h-1v-23l-4 1-1 2 1-7 6-7z" fill="#C2D1BD"/>
<path transform="translate(873,429)" d="m0 0h2l5 10 8 19 4 10-1 5-2-2-8-21-4-10v-2l-3-1-1-2z" fill="#4D6AB0"/>
<path transform="translate(883,497)" d="m0 0 4 1v6l-5 12-11 13-2 2h-3l2-4 11-15 6-11v-2z" fill="#325488"/>
<path transform="translate(949,570)" d="m0 0h5l3 3v2h8v2l-13 6h-6l2-1z" fill="#203460"/>
<path transform="translate(512,446)" d="m0 0h2l5 5 8 7 2 5 3 1 9 13-1 2-9-10-6-2v-6l-7-6-5-5z" fill="#A4BCCA"/>
<path transform="translate(881,384)" d="m0 0h27l5 1 49 1 7 2-3 1-7-1h-34l-25-1-2-1-17-1z" fill="#5F83BB"/>
<path transform="translate(930,474)" d="m0 0 5 1v19l-2 9-3-4v-17l-1-7z" fill="#BEC29F"/>
<path transform="translate(837,475)" d="m0 0h6l5 6 6 11 3 6v2h-2l-4-8v-3h-2v-2l-4-2-7-3-1-3h-8l4-2z" fill="#366EB1"/>
<path transform="translate(971,870)" d="m0 0 3 1-10 5-8 1h-62v-1l37-1 32-2z" fill="#C8CEC9"/>
<path transform="translate(527,717)" d="m0 0 2 4 5 20v8l-3-1-3-10-2-4v-15z" fill="#F8F8F8"/>
<path transform="translate(538,768)" d="m0 0 2 2 2-2 6 20v3h2l2 10v5h-2l-4-13-8-22z" fill="#E5E6E7"/>
<path transform="translate(796,497)" d="m0 0 7 1-1 3-3 2-2 4h-2l-1 2-6-2-1-4h-5l3-3 10-1z" fill="#4380B1"/>
<path transform="translate(1e3 976)" d="m0 0h3l-1 3-22 13-10 6h-2l1-4 7-3 4-4 9-3 1-3 6-1z" fill="#D6D7D9"/>
<path transform="translate(880,631)" d="m0 0h18v1l-29 3-14 1h-11v-2l11-2h11z" fill="#4C5A7D"/>
<path transform="translate(551,410)" d="m0 0 4 5 8 22 4 13 3 18h-2l-3-10-3-14-7-21-4-9z" fill="#B1BDA4"/>
<path transform="translate(763,619)" d="m0 0h1l1 11v10l-1 3h-2l-4-7v-13l2 1v2h2v-6z" fill="#ABC4D4"/>
<path transform="translate(1054,596)" d="m0 0h2l1 2v43l-2-3-1-18z" fill="#2E52A0"/>
<path transform="translate(853,539)" d="m0 0 3 1-11 10-6 3h-4l2-6 10-7 4 1z" fill="#D3DEBB"/>
<path transform="translate(891,471)" d="m0 0 3 3 8 28 3 13v7h-2l-5-24-5-16-2-6z" fill="#6AA8D3"/>
<path transform="translate(926,634)" d="m0 0h8l5 1v2h2v2l4 1 3 2 27 3v1h-15l-21-3-1-3-4-2-3-1v-2h-5z" fill="#1E4C8C"/>
<path transform="translate(550,794)" d="m0 0 2 3 9 31 1 8-3-4-9-24v-2h2l-2-8z" fill="#C2CCD4"/>
<path transform="translate(677,508)" d="m0 0h1l1 11h2l-1-3h2v4l20-7 5-2-4 4-17 8-5 2-1 7-2-4-1-11z" fill="#BDD2B4"/>
<path transform="translate(591,479)" d="m0 0 2 3 2 28v14l-3-2-2-10v-8l1-3z" fill="#D1D2D4"/>
<path transform="translate(978,534)" d="m0 0h2l3 17 2 13-1 5 5-3h3l-4 4h-4l-1 2-2-10-3-21z" fill="#3762AA"/>
<path transform="translate(594,455)" d="m0 0 2 4 1 3 22 3 5 2v6l-2-4-20-3-2 2-1 7-2-3-3-12z" fill="#ACC5D4"/>
<path transform="translate(718,513)" d="m0 0 5 3 3 8v4l7-3 6-3 3 1-14 8-3 2-3-1-3-14z" fill="#A1ADAB"/>
<path transform="translate(767,614)" d="m0 0 6 1 2 2-1 2 27-1v1l-26 4h-6l-2-1z" fill="#C1C79E"/>
<path transform="translate(652,482)" d="m0 0h3l-1 6-5 9-6 2-5 1-1-4 4 1 5-7 3-5z" fill="#D1DDB9"/>
<path transform="translate(515,481)" d="m0 0h1l4 19 4 28v12h-1l-1-7-1-1-2-21-3-18-1-1z" fill="#AFD4E6"/>
<path transform="translate(930,471)" d="m0 0m-2 1 5 1-3 2 1 7v11l-2 10h-2l-2-9 1-2z" fill="#46537C"/>
<path transform="translate(705,392)" d="m0 0 4 2 6 7 3 2 3 6 3 5 3 4 3 2h-4l-1 2-9-14v-2h-2l-1-4h-2l-4-6z" fill="#81AAD0"/>
<path transform="translate(839,578)" d="m0 0 3 1v23l1 8-2 6 2 1-1 2-1 15h-1l-1-10z" fill="#6FB8DA"/>
<path transform="translate(723,541)" d="m0 0 3 4 2 20h-2l-2-8-2-1v-2h-2l-1-8z" fill="#BDD2B4"/>
<path transform="translate(790,447)" d="m0 0 3 1-14 8-15 10-13 9-2-1 10-8 10-7 1-2 14-7z" fill="#61708D"/>
<path transform="translate(1056,584)" d="m0 0h1l2 13v59h-1l-1-43-1-15z" fill="#7590B9"/>
<path transform="translate(586,428)" d="m0 0h1l1 27 3 8 2 13v6l-2-3-6-28v-18z" fill="#B8C9AC"/>
<path transform="translate(485,796)" d="m0 0 5 3 2 5v4l-1 2h-2l-2 4-2-5-2-2 1-8z" fill="#3871B3"/>
<path transform="translate(525,522)" d="m0 0h1l3 27-1 27h-1l-1-6-1-36z" fill="#E5E6E8"/>
<path transform="translate(905,519)" d="m0 0 2 3 1 9 2 1-2 2 2 8v7h-1l-1 10h-1l-2-26-2-7v-4h2z" fill="#5C8EBF"/>
<path transform="translate(484,384)" d="m0 0h8l8 1 2 3-8 4-6-1-5-5z" fill="#7999CC"/>
<path transform="translate(753,481)" d="m0 0 7 1v3l4-1 3 2 3 12 4 3-6 2-3-9h2l-4-6-6-2v-2h-6l-1-2z" fill="#77B3D9"/>
<path transform="translate(744,468)" d="m0 0 2 1 2 6h5l-1 6-1 1v8l1 9-2-1-4-17-1-6z" fill="#BEDAE7"/>
<path transform="translate(680,461)" d="m0 0 9 3 8 6-1 6-2-4-2-3-12-2-5-1h-3l1-4z" fill="#7AB2D8"/>
<path transform="translate(792,574)" d="m0 0h6l-3 2-11 3-10 5-1 6 2 2h-7l-1-3 4-8z" fill="#A8B5A9"/>
<path transform="translate(490,409)" d="m0 0h2l9 19 3 5 3 12 1 11-2-3-1-7-2-4-2-9-4-8-5-8-2-4z" fill="#9BB7D3"/>
<path transform="translate(529,642)" d="m0 0h1l1 11v18l-1 18h-2v-23z" fill="#C6D4B9"/>
<path transform="translate(687,449)" d="m0 0 2 1-9 9 3-2 4 1 5 6-1 2-9-4-6 1-2-2z" fill="#7C9BCB"/>
<path transform="translate(556,404)" d="m0 0 4 1 1-1h5l3 3v2h3l2 4-1 4-4-6-3-2-3 2h-3l-1 2z" fill="#A1BBD4"/>
<path transform="translate(781,503)" d="m0 0h6l5 10 3 11v7l-2-1-2-10-2-5-3-11-7 3-6 4h-2v-2z" fill="#66A4D0"/>
<path transform="translate(513,779)" d="m0 0 3 1v9l-5 12-2-4v-7l3-10z" fill="#215DA5"/>
<path transform="translate(527,702)" d="m0 0h1v15l-1 2v15l3 6 1 8-2-4-4-1v-25z" fill="#E4E6E8"/>
<path transform="translate(855,466)" d="m0 0h5l-3 2-12 6-10 3-10 4h-3l3-3 24-10z" fill="#415178"/>
<path transform="translate(710,461)" d="m0 0 3 1-12 9h-2v2h-2l-3-5 1-3 6-2z" fill="#8090AA"/>
<path transform="translate(873,423)" d="m0 0 9 2 10 4v3h-7l-11-5z" fill="#CFD8B2"/>
<path transform="translate(412,827)" d="m0 0 3 3 3 10 3 4 5 13 6 11-1 3-8-15-1-5h-2l-5-12-3-8z" fill="#738BB2"/>
<path transform="translate(876,580)" d="m0 0 2 4v16l-1 3 4 1h-13l2-5h5z" fill="#3770B2"/>
<path transform="translate(798,593)" d="m0 0 2 2 1 8-3 1-8-4-2-3z" fill="#7BB0D6"/>
<path transform="translate(1006,646)" d="m0 0h11l12 1 28-1v3h-21l-2 1h-9l-3-1-16-2z" fill="#225BA4"/>
<path transform="translate(893,600)" d="m0 0h5v4l-18 6-4-1 9-3v-2l-4-1z" fill="#C1C5A1"/>
<path transform="translate(823,583)" d="m0 0h1l1 6 1 23h-2l-1-3v-12l-2-5-3-1 1-4z" fill="#3F80B1"/>
<path transform="translate(632,471)" d="m0 0h1l2 11 4 8 1 3h4l-2 4h-4l-2-1-3-9-1-6z" fill="#AEC6D4"/>
<path transform="translate(792,409)" d="m0 0 5 4 2 5 6 11 1 5-2 3-5-11-5-9z" fill="#6D90C3"/>
<path transform="translate(509,443)" d="m0 0h2l3 7 5 5 7 6-2 1-8-3-5-6-2-6z" fill="#7DB8DA"/>
<path transform="translate(575,417)" d="m0 0h2l5 10 3 10v11l-4-8-3-12z" fill="#ADC9D9"/>
<path transform="translate(877,610)" d="m0 0 3 1 1 8v12l-1 1h-5l2-3v-13l-2-1 1-4z" fill="#1F548F"/>
<path transform="translate(839,552)" d="m0 0h3l-1 3h-2v2h2l2 4-2 6 13-2-4 3-11 3-1-5v-13z" fill="#6B9DC2"/>
<path transform="translate(707,433)" d="m0 0 1 4-7 6-4 2-5 5-11 10-2-1 14-14 9-7z" fill="#7B88A2"/>
<path transform="translate(913,385)" d="m0 0h51l12 4 1 2-8-1v-2l-7-1-49-1z" fill="#7A9ACC"/>
<path transform="translate(922,627)" d="m0 0h7l4 2-2 2-9 2h-6l-1-4z" fill="#D1DCB4"/>
<path transform="translate(562,418)" d="m0 0 3 4 8 23 2 4 1 9-2-1-11-33z" fill="#9CA9AE"/>
<path transform="translate(587,1115)" d="m0 0 4 1 6 3 6 1 6 3 5 1 7 3-3 1-16-5-17-6z" fill="#FEFEFE"/>
<path transform="translate(835,564)" d="m0 0h1l2 30 1 7v8l-3 1v-12l-1-10z" fill="#60A2D0"/>
<path transform="translate(885,519)" d="m0 0 1 2v7l5 6v2l5 2 3 3-4 2-2-3-4-2-2-4h-2v-4l-3-1 2-9z" fill="#215DA5"/>
<path transform="translate(875,641)" d="m0 0 9 1 1 2-41 1-1-3h17z" fill="#4881B0"/>
<path transform="translate(1040,493)" d="m0 0 2 2 2 4 2 11 2 5v10l-1-4h-2l-2-14-3-8z" fill="#6484BB"/>
<path transform="translate(837,441)" d="m0 0 2 1 1 11 3 6 4 2h2v2l-7 1-3-5-2-7-2-1 1-8z" fill="#1E4787"/>
<path transform="translate(602,502)" d="m0 0h1l3 13 4-1 2-1-2 6-3 5h-2l-3-12-1-8z" fill="#E8E8E9"/>
<path transform="translate(862,460)" d="m0 0h4l-1 5-13 2-4-1v-2l10-3z" fill="#D1D8D1"/>
<path transform="translate(651,411)" d="m0 0 7 1 6 8-7 1-3-3-3-4z" fill="#8695AB"/>
<path transform="translate(655,484)" d="m0 0 2 2-2 11-6 5h-1l1-7z" fill="#AFBAA0"/>
<path transform="translate(644,418)" d="m0 0 1 3-4 12-1 12-3 7h-1l1-14 4-13z" fill="#ABB7A6"/>
<path transform="translate(520,758)" d="m0 0h1v19l-3 14-2 4v-13l2-8z" fill="#7B9CC5"/>
<path transform="translate(802,625)" d="m0 0 3 1 1 5v7l-6 1-1-2z" fill="#9AA7B0"/>
<path transform="translate(684,443)" d="m0 0 3 1-9 7-8 6 1-5h2l1-5 4-3z" fill="#8191AA"/>
<path transform="translate(716,381)" d="m0 0h23v2l-12 2-8 1z" fill="#62A6D3"/>
<path transform="translate(802,553)" d="m0 0 8 6h7l-3 2-7 3h-4l-1-4z" fill="#606F8D"/>
<path transform="translate(720,499)" d="m0 0h4v6l-4 3h-5l-1-3 1-4z" fill="#D6D89D"/>
<path transform="translate(578,479)" d="m0 0 3 3 3 15 2 7v5l-4-5-2-6v-9z" fill="#BDD2B4"/>
<path transform="translate(432,871)" d="m0 0 5 2 7 6 1 5 4 2 2 2-4-1-4-2-7-8-4-4z" fill="#627DA7"/>
<path transform="translate(524,723)" d="m0 0h1l1 20 3 1 3 7-1 3-1-4h-6l-1-6z" fill="#C4CDD4"/>
<path transform="translate(957,610)" d="m0 0 3 1v7l-6 5-1-2h-5l5-4z" fill="#DCDB92"/>
<path transform="translate(181,565)" d="m0 0h2l5 13 6 16-2 3-11-29z" fill="#FDFDFD"/>
<path transform="translate(357,992)" d="m0 0h10l-2 5-2 2h-6l-1-5z" fill="#FEFEFE"/>
<path transform="translate(882,596)" d="m0 0 6 2 7 1-2 2-7 2h-7l1-5z" fill="#304576"/>
<path transform="translate(162,516)" d="m0 0h2l10 25-2 4-10-27z" fill="#FEFEFE"/>
<path transform="translate(1053,949)" d="m0 0 2 1-22 13h-5l3-3 9-4 4-4z" fill="#DEDFE0"/>
<path transform="translate(860,512)" d="m0 0 2 3v2h2l2 6-7 7-1-3 1-8z" fill="#4A7FAF"/>
<path transform="translate(899,608)" d="m0 0h1l1 10 3 12-4-1-3-9 1-9z" fill="#2459A3"/>
<path transform="translate(746,585)" d="m0 0 4 1-5 3-16 4-3-3z" fill="#DAE4B9"/>
<path transform="translate(1e3 518)" d="m0 0 1 2h2l2 5v17l-2 2v-8h-1l-2-14-1-3z" fill="#B9C29F"/>
<path transform="translate(882,498)" d="m0 0 4 1-2 6-4 7-1-3-3 1 2-5z" fill="#D0D9BA"/>
<path transform="translate(813,457)" d="m0 0 2 2 2-1 4 13-1 9-2-4-5-16z" fill="#64A9D4"/>
<path transform="translate(630,397)" d="m0 0 5 2 4 4v4l-5 1-1-4h-2l-2-5z" fill="#6B8DBF"/>
<path transform="translate(497,639)" d="m0 0 3 3 3 6-1 6 1 4v11h-1l-2-10-2-13z" fill="#7F8DA5"/>
<path transform="translate(847,610)" d="m0 0h6v2l2 2-8 2h-6v-5z" fill="#D5E0C0"/>
<path transform="translate(483,808)" d="m0 0 2 2v6l-1 1h-9l2-5z" fill="#3871B3"/>
<path transform="translate(819,579)" d="m0 0h5l-1 5-9 3h-3v-2l3-2-1-2z" fill="#CDD7B2"/>
<path transform="translate(438,552)" d="m0 0 5 2 1 3-5 1-4 14h-1v-11l3-5z" fill="#5882BA"/>
<path transform="translate(928,514)" d="m0 0 1 3 4 1-4 2-3 3h-2l-1 4-5 5-3 4-2-1 8-10z" fill="#3E5B85"/>
<path transform="translate(915,511)" d="m0 0 1 2 2 1-4 6h-2l-1 3-2 1v4h-2v-7l2-4 5-5z" fill="#3F5DA5"/>
<path transform="translate(717,464)" d="m0 0 2 1-6 8h-3v4l-8 1 5-6z" fill="#748FB7"/>
<path transform="translate(927,438)" d="m0 0h1l2 8 3 8 2 5-1 3-7-11z" fill="#1E4A8A"/>
<path transform="translate(721,416)" d="m0 0 4 4 2 4v4l-6 1-5-4 6-2z" fill="#5982BA"/>
<path transform="translate(792,407)" d="m0 0h16l11 1v1h-16l-2 2h-7z" fill="#B2C4B0"/>
<path transform="translate(501,650)" d="m0 0 3 1 4 10-1 4-2-5 1 11 1 5-3-4-3-18z" fill="#7B9FC9"/>
<path transform="translate(848,636)" d="m0 0h11l2 2-1 2h-13l-3-3z" fill="#D9E2B5"/>
<path transform="translate(900,542)" d="m0 0 3 1-1 6-10 6-5 2-3-1 12-8 3-1z" fill="#365588"/>
<path transform="translate(769,639)" d="m0 0 3 1-2 1-1 4h33v1h-36v-6z" fill="#E2E096"/>
<path transform="translate(883,451)" d="m0 0 3 2 6 15-1 5-2-2-6-16z" fill="#587DB8"/>
<path transform="translate(940,541)" d="m0 0 2 2 4 20-2 4-1-1-3-19z" fill="#1E4C8A"/>
<path transform="translate(576,882)" d="m0 0h2l1 2 41 1v1h-47l3-3z" fill="#79839D"/>
<path transform="translate(829,639)" d="m0 0 4 4v3l-6 1h-13l-1-2 16-1z" fill="#707C97"/>
<path transform="translate(606,881)" d="m0 0h13l6 1-4 2h-18v-2z" fill="#1A2F5C"/>
<path transform="translate(843,636)" d="m0 0h5l-3 2 2 1h29v1l-26 2h-6z" fill="#B5C4AA"/>
<path transform="translate(989,560)" d="m0 0h6l-3 5-5 4h-3v-5z" fill="#C5D1B8"/>
<path transform="translate(723,460)" d="m0 0 5 1-1 5-2 2-8-1 4-6z" fill="#5B7EB0"/>
<path transform="translate(777,452)" d="m0 0 4 1-8 4h-3l-2 4-7 4 1-4 4-4z" fill="#3366AD"/>
<path transform="translate(538,418)" d="m0 0 1 2-10 4-7 3h-11v-1l12-3z" fill="#ACC5D4"/>
<path transform="translate(1053,622)" d="m0 0 2 2 1 14 1 8-1 1h-7l1-2 3-1z" fill="#1F548E"/>
<path transform="translate(1e3 517)" d="m0 0 3 4 2 8v11l-2 5-1-4v-14l-2-5z" fill="#5B6683"/>
<path transform="translate(650,410)" d="m0 0h5l-4 1 6 12-1 4-5-10-2 1-2-2-2 1 2-4z" fill="#96AFC6"/>
<path transform="translate(638,884)" d="m0 0h17v1l-26 2-5 1v-3z" fill="#D7DED5"/>
<path transform="translate(1051,719)" d="m0 0 1 4-5 28-2 1 2-15 1-8 1-1z" fill="#5A83B9"/>
<path transform="translate(896,637)" d="m0 0h7l-1 3-9 1h-14v-1l12-2z" fill="#1A2F5C"/>
<path transform="translate(806,596)" d="m0 0 2 2v6l3 1 4 5-6-1-1 6 2 1h-3z" fill="#757D97"/>
<path transform="translate(194,600)" d="m0 0h2l3 7 3 10 3 9h-2l-9-24z" fill="#FEFEFE"/>
<path transform="translate(416,820)" d="m0 0 4 1-1 6-2 3h-3l-1-9z" fill="#376FB2"/>
<path transform="translate(703,468)" d="m0 0h5v3l-3 2-2 4-4-1v-2l-2-1h2v-2z" fill="#DBDA96"/>
<path transform="translate(804,415)" d="m0 0 19 1v1l-14 1-6 2-2 3-3-6z" fill="#3366AD"/>
<path transform="translate(696,307)" d="m0 0m-3 1h3v2l-9 4-11 5-3-1 14-7z" fill="#D1D3D6"/>
<path transform="translate(883,497)" d="m0 0 4 1v6l-4 7h-2l-1 5-4 2 2-5 7-12v-2z" fill="#47567D"/>
<path transform="translate(676,495)" d="m0 0 2 3 2 10 1 11h-2l-3-16z" fill="#E3E5E7"/>
<path transform="translate(735,495)" d="m0 0 1 2-2 5-4 5-4-2 2-4z" fill="#5F94C5"/>
<path transform="translate(587,458)" d="m0 0h2l2 5 2 13v6l-2-3-3-14z" fill="#BDD2B4"/>
<path transform="translate(1e3 976)" d="m0 0h3l-1 3-14 8v-3l2-3 6-1z" fill="#D5D5D7"/>
<path transform="translate(484,603)" d="m0 0 2 1 1 6h2l2 5v7l-1-2h-2l-2-5z" fill="#8C9AAD"/>
<path transform="translate(936,582)" d="m0 0 2 1v3l2 1-11 4-4-1 5-3h2l1-3z" fill="#305689"/>
<path transform="translate(718,508)" d="m0 0 1 2 1 8 1 9-4-8-4-1 2-4 2-5z" fill="#A9C0CC"/>
<path transform="translate(837,475)" d="m0 0h6l5 6-1 3-4-3-5-4-4 2h-5l4-2z" fill="#3566AC"/>
<path transform="translate(725,453)" d="m0 0 4 1v7l-5-1 1-5-8 4-2-1 6-4z" fill="#7A92B4"/>
<path transform="translate(775,415)" d="m0 0 1 2-1 5-6 1-4-4 9-3z" fill="#405DA5"/>
<path transform="translate(643,399)" d="m0 0 3 1 2 3h7v1l-9 1-2 4-2 2 1-6h-2l-2-4h4z" fill="#8DA6C4"/>
<path transform="translate(754,610)" d="m0 0 2 3 3 14-1 8-2-1z" fill="#BBCFB2"/>
<path transform="translate(815,466)" d="m0 0 2 3 3 11v5l-3-4v-2l-3-1z" fill="#3A75B6"/>
<path transform="translate(442,378)" d="m0 0h2l-2 4-7 7h-2v3l-4 1 4-6 5-6z" fill="#8CA5C4"/>
<path transform="translate(398,756)" d="m0 0 3 2v2h-2v2l3 1-1 15h-1l-2-11z" fill="#5877B6"/>
<path transform="translate(914,627)" d="m0 0h8v1l-7 1 1 3 2 2-2 2-1 5h-2l-1-10h2z" fill="#5584B4"/>
<path transform="translate(843,620)" d="m0 0 7 1v3h-2l-1 3h-2v2h-2z" fill="#4088C6"/>
<path transform="translate(647,415)" d="m0 0 2 1-2 6-4 9-2 9h-1v-7l5-16z" fill="#7D8CA8"/>
<path transform="translate(596,410)" d="m0 0 5 1-1 5-2-1 1-3-5 2-5 9-2 2 1-7 6-7z" fill="#ABC1D4"/>
<path transform="translate(773,582)" d="m0 0 2 1-2 7 2 2h-7l-1-3 3-5z" fill="#9EB8D2"/>
<path transform="translate(818,564)" d="m0 0 4 1-5 3h-3v2l-8 2-3-1z" fill="#516991"/>
<path transform="translate(795,527)" d="m0 0h1l4 17v5l-2-1-4-17z" fill="#5F9FCD"/>
<path transform="translate(960,467)" d="m0 0h2l2 7h2l1 5h-2v5l-2-4-3-10z" fill="#3D5BA4"/>
<path transform="translate(481,396)" d="m0 0 3 2v5l-7 2 1-8z" fill="#6B8DBF"/>
<path transform="translate(749,197)" d="m0 0 3 1-4 2-10 1h-8v-2z" fill="#FEFEFE"/>
<path transform="translate(960,173)" d="m0 0h7l-2 3-9 1-1-1h-9v-1z" fill="#FCFCFC"/>
<path transform="translate(867,614)" d="m0 0h4l1 9v6l-2 2-4-1 3-2v-11z" fill="#3770B2"/>
<path transform="translate(589,512)" d="m0 0h2l2 10 1 1v5l-3-2-3-10z" fill="#BDD2B4"/>
<path transform="translate(558,514)" d="m0 0 3 4v4h2l-1 5-5-5-2-4 2-1z" fill="#D8DEE5"/>
<path transform="translate(818,463)" d="m0 0 1 2 4 2 5 4-5 3h-2l-3-8z" fill="#4171AD"/>
<path transform="translate(791,576)" d="m0 0 2 1-2 3v5l3 2-6 1v-5l-1-3-4-1z" fill="#76B3D9"/>
<path transform="translate(874,549)" d="m0 0h8v2h-2l-1 3-6 1v-5z" fill="#25457F"/>
<path transform="translate(551,410)" d="m0 0 4 5 4 11v5l-2-3-6-14z" fill="#B5C1A4"/>
<path transform="translate(543,888)" d="m0 0h30l-4 2-5 1-1-1-20-1z" fill="#CBD2CA"/>
<path transform="translate(877,584)" d="m0 0h1v16l-1 3 4 1h-9l2-4h2z" fill="#3765A6"/>
<path transform="translate(173,545)" d="m0 0h2l4 9 3 8-2 3-7-18z" fill="#FDFDFD"/>
<path transform="translate(662,521)" d="m0 0 2 2 4 14h-2l-3-6-2-3v-6z" fill="#BCC49F"/>
<path transform="translate(521,519)" d="m0 0h2l1 9v12h-1l-1-7-1-1z" fill="#A4D0E5"/>
<path transform="translate(922,494)" d="m0 0h2l3 5 1 6-3 4-3-12z" fill="#26528A"/>
<path transform="translate(744,412)" d="m0 0 2 2-15 5-5-1v-2l9-1z" fill="#79829B"/>
<path transform="translate(511,395)" d="m0 0 2 1-11 6-7 3h-3l-1 4v-5l9-4z" fill="#ACC5D4"/>
<path transform="translate(550,794)" d="m0 0 2 3 3 10v6l-2-1v-2h-2l-1-4h2l-2-8z" fill="#C9D3D2"/>
<path transform="translate(889,610)" d="m0 0 3 1v2l-4 3-1 9-2-3v-9h2v-2z" fill="#1E4A8A"/>
<path transform="translate(920,600)" d="m0 0h7l2 8-2 3-1 2-1-1 1-11-9 2z" fill="#2C509D"/>
<path transform="translate(538,522)" d="m0 0 3 1 2 7-4 1-2-3v-5z" fill="#E8E8E9"/>
<path transform="translate(628,449)" d="m0 0h1l-1 14h-2l-1 5h-1l1-10z" fill="#A6B1A7"/>
<path transform="translate(737,441)" d="m0 0h3l3 11 2 6-2 1-6-16z" fill="#5B8DC1"/>
<path transform="translate(805,434)" d="m0 0h2l4 9 1 4-3 2-4-11z" fill="#6CA4D0"/>
<path transform="translate(871,422)" d="m0 0h2l2 5 10 4v1h-8l-5-4z" fill="#576584"/>
<path transform="translate(776,409)" d="m0 0 1 3-5 3-14 3 1-2 15-5h2z" fill="#5B6A88"/>
<path transform="translate(831,408)" d="m0 0h11l5 5-10-1-6-2z" fill="#45557A"/>
<path transform="translate(1182,625)" d="m0 0 3 3 3 10-5-2-1-6z" fill="#FEFEFE"/>
<path transform="translate(911,530)" d="m0 0h2l1 3-3 5-3 1-1-5z" fill="#D8E0E0"/>
<path transform="translate(403,466)" d="m0 0 1 2-4 13-2 9h-1l-1-6 4-13 1-4z" fill="#DEE2E6"/>
<path transform="translate(840,472)" d="m0 0 2 1-5 3-12 5h-3l3-3z" fill="#606E8A"/>
<path transform="translate(635,423)" d="m0 0 1 4-2 8-3 11h-1l1-10 2-8z" fill="#9FACAB"/>
<path transform="translate(547,410)" d="m0 0 4 1v3l-10 4-2-1 3-1 1-3z" fill="#ACC5D4"/>
<path transform="translate(444,880)" d="m0 0 7 2 3 4-1 2-5-2-3-2z" fill="#3E60A6"/>
<path transform="translate(522,749)" d="m0 0h1v23l-3 3 1-18z" fill="#A5BDCF"/>
<path transform="translate(751,601)" d="m0 0 1 3-6 2-8 1v-2z" fill="#DAE4B9"/>
<path transform="translate(929,499)" d="m0 0h2l1 7-1 3h-2l-1 2-1-6z" fill="#D2D7A5"/>
<path transform="translate(796,493)" d="m0 0 3 1h-2l-2 6h-8l4-4z" fill="#466DA2"/>
<path transform="translate(512,465)" d="m0 0 2 1 2 8-1 7-2-3-1-5z" fill="#C7DAE5"/>
<path transform="translate(792,409)" d="m0 0 5 4 2 5 1 3-2 3-4-7z" fill="#708BB7"/>
<path transform="translate(458,660)" d="m0 0h2v10h-2v13h-1v-18z" fill="#3366AD"/>
<path transform="translate(875,641)" d="m0 0 9 1 1 2-25-1v-1z" fill="#2D64AA"/>
<path transform="translate(855,632)" d="m0 0h5l-5 4h-11v-2z" fill="#5A6885"/>
<path transform="translate(837,594)" d="m0 0h1l1 7v8l-3 1v-11z" fill="#60A0CE"/>
<path transform="translate(983,560)" d="m0 0 2 4-1 5 5-3h3l-4 4h-4l-1 2-2-10z" fill="#526D9F"/>
<path transform="translate(935,499)" d="m0 0h1v9l-3 3-2-1 1-7h2z" fill="#1F335F"/>
<path transform="translate(724,494)" d="m0 0 2 1-6 5-6 2-1-5 8-1z" fill="#8393AA"/>
<path transform="translate(590,422)" d="m0 0h2v16h-1l-2-7-1-5z" fill="#E8E8E9"/>
<path transform="translate(838,418)" d="m0 0h8v2h-2l-1 4h-2v2h-2l1-7z" fill="#2C447A"/>
<path transform="translate(751,587)" d="m0 0 2 1 1 5v7l-2-3-2-5-4-3z" fill="#ABB6A2"/>
<path transform="translate(998,507)" d="m0 0 4 2 2 4-6-3 2 7h-2l-2-3v-6z" fill="#4E5C7F"/>
<path transform="translate(647,498)" d="m0 0h1v8l-2 5-2-1 1-9z" fill="#C2C79D"/>
<path transform="translate(683,495)" d="m0 0v3l-1 2-1 15-2-4v-12z" fill="#BDD2B4"/>
<path transform="translate(767,493)" d="m0 0 4 6 3 2-6 2-3-9z" fill="#7BB4D9"/>
<path transform="translate(746,491)" d="m0 0h3l2 7v6h-1v-5h-2l-1 2-1-5z" fill="#6AAED6"/>
<path transform="translate(404,469)" d="m0 0 9 2 2 2h-6l-6-1-2 7-1-3 2-6z" fill="#ACC8D7"/>
<path transform="translate(730,424)" d="m0 0 3 1v3l3 2 1 10-2-2-5-11z" fill="#5D84B7"/>
<path transform="translate(653,1137)" d="m0 0 5 2 4 2 2 5-5-2-5-4z" fill="#C1C9BE"/>
<path transform="translate(557,818)" d="m0 0 2 2 3 12-1 4-4-9z" fill="#AAC3D4"/>
<path transform="translate(519,711)" d="m0 0 4 2v4h2l1-4-1 10-1-3-3-1-2-5z" fill="#739DCA"/>
<path transform="translate(931,625)" d="m0 0 7 1v3l-5 1-6-3z" fill="#D6D696"/>
<path transform="translate(924,624)" d="m0 0h7v2l-4 1h-11v-2z" fill="#2F416E"/>
<path transform="translate(864,532)" d="m0 0 3 1v2h3v8l-2-3v-3h-7z" fill="#366AAD"/>
<path transform="translate(920,516)" d="m0 0 1 3-9 10-1 2h-2l2-5 3-2 1-3z" fill="#4C5B7D"/>
<path transform="translate(154,492)" d="m0 0h2l1 9 3 1 1 8h-2l-5-15z" fill="#FEFEFE"/>
<path transform="translate(793,487)" d="m0 0 3 1-14 7 1-4z" fill="#677591"/>
<path transform="translate(512,446)" d="m0 0h2l5 5 4 5-1 3-5-6-5-5z" fill="#91AAC3"/>
<path transform="translate(698,431)" d="m0 0h9v1l-6 2-8 4 2-5z" fill="#747D98"/>
<path transform="translate(757,408)" d="m0 0 3 1-7 3-8 1 4-4z" fill="#606F8D"/>
<path transform="translate(705,392)" d="m0 0 4 2 6 7-2 3v-2h-2l-4-6z" fill="#7898CB"/>
<path transform="translate(825,624)" d="m0 0h1v8h2l1 7h-2l-3-5z" fill="#5682B7"/>
<path transform="translate(817,577)" d="m0 0h5l-3 3-9 3-4-1z" fill="#63718E"/>
<path transform="translate(998,510)" d="m0 0 5 2 1 1v5l-4-1-2-4z" fill="#C9CC9A"/>
<path transform="translate(758,511)" d="m0 0 5 1 1 2-5 2-4 2v-5z" fill="#E6E7E8"/>
<path transform="translate(529,463)" d="m0 0 3 1 9 13-1 2-6-7-4-7z" fill="#ABC4D4"/>
<path transform="translate(668,459)" d="m0 0 2 1 1 4-1 7h-2l-1-3v-8z" fill="#DAE1E6"/>
<path transform="translate(639,435)" d="m0 0h1v10l-3 7h-1v-7l2-6z" fill="#98A5AD"/>
<path transform="translate(980,991)" d="m0 0 1 3-7 4h-2l1-4z" fill="#D7D8DA"/>
<path transform="translate(866,632)" d="m0 0h6l-3 3h-13l2-2z" fill="#53607E"/>
<path transform="translate(868,565)" d="m0 0h6l2 5v7l-2-3-3-6-3-1z" fill="#386CAE"/>
<path transform="translate(742,528)" d="m0 0h2l1 6-1 2-4-2-1-4z" fill="#7E8EAA"/>
<path transform="translate(932,515)" d="m0 0 2 1 3 7 1 10-2-4-2-7-2-4-3-2z" fill="#1E4B8A"/>
<path transform="translate(687,449)" d="m0 0 2 1-9 9-1 2-5 1 4-5 8-7z" fill="#92A0AA"/>
<path transform="translate(891,471)" d="m0 0 3 3 2 9-2 2-3-9z" fill="#6B8DC3"/>
<path transform="translate(570,443)" d="m0 0h2l3 6 1 9-2-1-4-12z" fill="#9DAAAD"/>
<path transform="translate(904,426)" d="m0 0v3l-2 4-4-1-1-2-3-1 1-2 5 1z" fill="#1E4989"/>
<path transform="translate(176,410)" d="m0 0 2 2-3 1-2 4-7 4v-2h2l2-4z" fill="#FDFDFD"/>
<path transform="translate(1079,932)" d="m0 0 3 1-9 6-6 2 2-4 7-3z" fill="#CED2D0"/>
<path transform="translate(756,638)" d="m0 0h2l2 3v5l-5-1z" fill="#B7C09F"/>
<path transform="translate(515,481)" d="m0 0h1l3 14v5l-2-2-2-6z" fill="#ACD0E3"/>
<path transform="translate(655,484)" d="m0 0 2 2-1 8h-3l-1-4z" fill="#A9B5A4"/>
<path transform="translate(583,433)" d="m0 0 2 4v11l-4-8v-5z" fill="#ACC5D4"/>
<path transform="translate(959,385)" d="m0 0 9 1 9 4-4 1-4-1v-2l-10-2z" fill="#85A2CA"/>
<path transform="translate(412,827)" d="m0 0 3 3 4 16-2-1-4-13z" fill="#88A7CD"/>
<path transform="translate(807,645)" d="m0 0h6l1 2-2 1h-13v-1z" fill="#A3B6BA"/>
<path transform="translate(802,553)" d="m0 0 6 5v2l-5 1-1-1z" fill="#757D97"/>
<path transform="translate(873,510)" d="m0 0 2 1-8 11h-2l2-5 3-3 1-2h2z" fill="#47587D"/>
<path transform="translate(644,497)" d="m0 0 4 1-3 6-4-1 2-5z" fill="#E5E292"/>
<path transform="translate(932,491)" d="m0 0 2 2-1 10-3-4v-6z" fill="#CCCB9C"/>
<path transform="translate(762,484)" d="m0 0 5 2 1 7-7-6z" fill="#78B4DA"/>
<path transform="translate(746,467)" d="m0 0h10l-2 4-4 3h-2v-2h2l1-3-5-1z" fill="#5C94C5"/>
<path transform="translate(717,464)" d="m0 0 2 1-6 8-3-1 2-4z" fill="#768EB3"/>
<path transform="translate(799,1084)" d="m0 0h2v3l-5 4-2-1 2-3-4-2z" fill="#FEFEFE"/>
<path transform="translate(1037,957)" d="m0 0h3v2l-7 4h-5l3-3z" fill="#D2D7D7"/>
<path transform="translate(448,812)" d="m0 0 5 2v4l-2 2-3-5z" fill="#3871B3"/>
<path transform="translate(912,611)" d="m0 0h1v10h2l-1 9h-1l-1-7z" fill="#4B8CC5"/>
<path transform="translate(883,509)" d="m0 0 1 3-3 5-5 5 1-5 3-3 1-3h2z" fill="#1E4D8A"/>
<path transform="translate(895,483)" d="m0 0 3 4 2 9-2 2-3-11z" fill="#6F9ECD"/>
<path transform="translate(880,558)" d="m0 0 2 1-4 4-6 3h-2v-2z" fill="#3F517B"/>
<path transform="translate(438,552)" d="m0 0 5 2 1 3-7 1z" fill="#577EB8"/>
<path transform="translate(1e3 518)" d="m0 0 1 2h2l1 7-3 1-2-9z" fill="#CACB9C"/>
<path transform="translate(547,473)" d="m0 0 4 4 6 9h-3l-7-11z" fill="#BDD2B4"/>
<path transform="translate(707,433)" d="m0 0 1 4-7 6-3-1 4-4z" fill="#747F99"/>
<path transform="translate(417,410)" d="m0 0 1 3-3 8h-2v-6z" fill="#FAFBFB"/>
<path transform="translate(792,407)" d="m0 0 7 1 2 1v2h-7z" fill="#D1DBB9"/>
<path transform="translate(697,389)" d="m0 0h15v1h-5v2h-2l-1 2-1-4h-6z" fill="#6B8DBF"/>
</svg>
